<?xml version="1.0" encoding="UTF-8"?>
<svg xmlns="http://www.w3.org/2000/svg" xmlns:xlink="http://www.w3.org/1999/xlink" width="473.989" height="277.92" viewBox="0 0 473.989 277.92">
  <defs>
    <clipPath id="clip-path">
      <rect id="Rectangle_37" data-name="Rectangle 37" width="473.988" height="277.92" fill="none"></rect>
    </clipPath>
  </defs>
  <g id="Groupe_151" data-name="Groupe 151" transform="translate(-101 -2280)">
    <g id="Groupe_36" data-name="Groupe 36" transform="translate(101 2280)">
      <g id="Groupe_35" data-name="Groupe 35" clip-path="url(#clip-path)">
        <path id="Tracé_102" data-name="Tracé 102" d="M591.86,82.306c55.247,46.542-17.029,162.332-88.213,203.38s-183.917,29.5-220.055-33.165-23.143-144.891,48.04-185.94c32.435-18.7,86.679-23.561,130.811-6.5C519.707,82.22,550.038,47.073,591.86,82.306" transform="translate(-169.803 -31.882)" fill="#eef5e5"></path>
        <path id="Tracé_103" data-name="Tracé 103" d="M995.1,525.294a100.824,100.824,0,0,0,11.425-17.3c11.836-22.6,13.937-46.534,7.136-62.831-17.269,3.694-35.739,19.052-47.575,41.657-6.781,12.952-10.366,26.338-10.912,38.475Z" transform="translate(-614.157 -286.231)" fill="#c5e0d6"></path>
        <path id="Tracé_104" data-name="Tracé 104" d="M1000.514,537.812a.531.531,0,0,1-.469-.776l38.195-72.946a.53.53,0,0,1,.94.492l-38.2,72.946a.531.531,0,0,1-.47.284" transform="translate(-642.971 -298.218)" fill="#fff"></path>
        <path id="Tracé_105" data-name="Tracé 105" d="M1026.971,612.589a.53.53,0,0,1-.073-1.055l24.229-3.369a.53.53,0,0,1,.146,1.05l-24.229,3.369a.518.518,0,0,1-.073.005" transform="translate(-659.983 -391.036)" fill="#fff"></path>
        <path id="Tracé_106" data-name="Tracé 106" d="M1052.752,562.39a.53.53,0,0,1-.1-1.051l20.354-3.9a.53.53,0,0,1,.2,1.041l-20.355,3.9a.563.563,0,0,1-.1.009" transform="translate(-676.56 -358.415)" fill="#fff"></path>
        <path id="Tracé_107" data-name="Tracé 107" d="M1080.4,511a.53.53,0,0,1-.121-1.046l13.181-3.113a.53.53,0,0,1,.244,1.032l-13.181,3.113a.534.534,0,0,1-.122.014" transform="translate(-694.339 -325.881)" fill="#fff"></path>
        <path id="Tracé_108" data-name="Tracé 108" d="M1004.45,584.376a.53.53,0,0,1-.473-.291l-11.034-21.833a.53.53,0,0,1,.946-.478l11.034,21.833a.53.53,0,0,1-.473.769" transform="translate(-638.407 -361.024)" fill="#fff"></path>
        <path id="Tracé_109" data-name="Tracé 109" d="M1035,540.326a.531.531,0,0,1-.485-.316l-8.387-18.952a.53.53,0,0,1,.97-.429l8.387,18.952a.53.53,0,0,1-.484.745" transform="translate(-659.749 -334.552)" fill="#fff"></path>
        <path id="Tracé_110" data-name="Tracé 110" d="M1068.839,498.945a.53.53,0,0,1-.494-.336L1063.4,486a.53.53,0,0,1,.987-.387l4.95,12.606a.53.53,0,0,1-.493.724" transform="translate(-683.72 -312.025)" fill="#fff"></path>
        <path id="Tracé_111" data-name="Tracé 111" d="M952.225,524.485H912.062a4.688,4.688,0,0,1-4.688-4.688V494.353h49.539V519.8a4.688,4.688,0,0,1-4.688,4.688" transform="translate(-583.425 -317.86)" fill="#5f8199"></path>
        <path id="Tracé_112" data-name="Tracé 112" d="M948.727,591.691H936.063a7.987,7.987,0,0,1-6.7-3.633l-6.049-9.3h38.155l-6.05,9.3a7.986,7.986,0,0,1-6.7,3.633" transform="translate(-593.676 -372.128)" fill="#3b4f66"></path>
        <path id="Tracé_113" data-name="Tracé 113" d="M954.621,559.769H905.082a1.272,1.272,0,1,1,0-2.544h49.539a1.272,1.272,0,1,1,0,2.544" transform="translate(-581.133 -358.285)" fill="#fff"></path>
        <path id="Tracé_114" data-name="Tracé 114" d="M954.621,539.946H905.082a1.272,1.272,0,1,1,0-2.544h49.539a1.272,1.272,0,1,1,0,2.544" transform="translate(-581.133 -345.539)" fill="#fff"></path>
        <path id="Tracé_115" data-name="Tracé 115" d="M954.621,520.122H905.082a1.272,1.272,0,1,1,0-2.544h49.539a1.272,1.272,0,1,1,0,2.544" transform="translate(-581.133 -332.792)" fill="#fff"></path>
        <path id="Tracé_116" data-name="Tracé 116" d="M902.875,194.274c4.327,7.495-5.868,11.173-17.558,17.922s-20.446,14.013-24.773,6.518.888-21.869,12.578-28.618,25.426-3.317,29.754,4.178" transform="translate(-552.343 -119.901)" fill="#fff"></path>
        <path id="Tracé_117" data-name="Tracé 117" d="M950.693,214.569c6.77-16,5.02-51.779-30.1-58.916a49.769,49.769,0,0,1,39.219,76.568,72.853,72.853,0,0,0-11.568,39.414,4.941,4.941,0,0,1-4.941,4.94H892.564a4.971,4.971,0,0,1-4.971-4.971,74.128,74.128,0,0,0-2.343-18.573c3.437,12.7,9.336,19.227,21.579,19.227,10.563,0,18.156-6.05,22.669-17.21,5.543-13.708,14.32-24.228,21.2-40.479" transform="translate(-569.199 -100.082)" fill="#b4ccc6"></path>
        <path id="Tracé_118" data-name="Tracé 118" d="M906.878,285.1c-2.139,6.467-.6,15.305,4.666,23.117s12.884,12.552,19.681,12.993c2.139-6.467.6-15.3-4.667-23.117S913.675,285.54,906.878,285.1" transform="translate(-582.506 -183.313)" fill="#88bfb1"></path>
        <path id="Tracé_119" data-name="Tracé 119" d="M974.461,423.82a1.273,1.273,0,0,1-1.272-1.272v-38.6a1.272,1.272,0,0,1,2.545,0v38.6a1.273,1.273,0,0,1-1.272,1.272" transform="translate(-625.743 -246.055)" fill="#509993"></path>
        <path id="Tracé_120" data-name="Tracé 120" d="M1006.142,255.109c2.774,8.385.779,19.843-6.05,29.971s-16.7,16.274-25.517,16.846c-2.774-8.385-.779-19.843,6.05-29.971s16.7-16.273,25.516-16.846" transform="translate(-625.857 -164.03)" fill="#509993"></path>
        <path id="Tracé_121" data-name="Tracé 121" d="M910.211,275.428H859.471a6.25,6.25,0,0,1-6.243-6.243,69.7,69.7,0,0,0-11.139-38.346,51.043,51.043,0,1,1,85.7-.35,71.438,71.438,0,0,0-11.366,38.726,6.219,6.219,0,0,1-6.213,6.212M884.8,154.436a48.5,48.5,0,0,0-40.582,75.01,72.238,72.238,0,0,1,11.555,39.74,3.7,3.7,0,0,0,3.7,3.7h50.739a3.672,3.672,0,0,0,3.668-3.668,73.975,73.975,0,0,1,11.771-40.1A48.5,48.5,0,0,0,887.434,154.5q-1.321-.069-2.635-.069" transform="translate(-536.107 -97.663)" fill="#5f8199"></path>
        <path id="Tracé_122" data-name="Tracé 122" d="M137.968,385.113c1.718,20.083,16.2,42.327,39.633,57.435s49.669,19.124,68.671,12.4c-1.718-20.083-16.2-42.327-39.633-57.435s-49.669-19.124-68.671-12.4" transform="translate(-88.711 -245.598)" fill="#88bfb1"></path>
        <path id="Tracé_123" data-name="Tracé 123" d="M255.318,466.639a.529.529,0,0,1-.287-.085L152.281,400.3a.53.53,0,0,1,.575-.891l102.751,66.257a.53.53,0,0,1-.288.976" transform="translate(-97.758 -256.757)" fill="#c5e0d6"></path>
        <path id="Tracé_124" data-name="Tracé 124" d="M227.7,512.478a.53.53,0,0,1-.166-1.034l29.788-9.845a.53.53,0,0,1,.332,1.007l-29.787,9.845a.527.527,0,0,1-.166.027" transform="translate(-146.068 -322.502)" fill="#c5e0d6"></path>
        <path id="Tracé_125" data-name="Tracé 125" d="M191.337,475.119a.53.53,0,0,1-.136-1.043l24.006-6.378a.53.53,0,1,1,.272,1.025L191.473,475.1a.532.532,0,0,1-.137.018" transform="translate(-122.685 -300.71)" fill="#c5e0d6"></path>
        <path id="Tracé_126" data-name="Tracé 126" d="M160.615,435.528a.53.53,0,0,1-.122-1.046L175.149,431a.53.53,0,0,1,.245,1.032l-14.656,3.485a.54.54,0,0,1-.123.014" transform="translate(-102.932 -277.114)" fill="#c5e0d6"></path>
        <path id="Tracé_127" data-name="Tracé 127" d="M245.694,421.054a.53.53,0,0,1-.522-.443l-4.1-24.5a.53.53,0,1,1,1.046-.175l4.1,24.5a.531.531,0,0,1-.436.611.564.564,0,0,1-.088.007" transform="translate(-155.003 -254.296)" fill="#c5e0d6"></path>
        <path id="Tracé_128" data-name="Tracé 128" d="M190.983,401.845a.53.53,0,0,1-.52-.429l-2.873-14.788a.53.53,0,0,1,1.041-.2l2.873,14.788a.53.53,0,0,1-.419.621.521.521,0,0,1-.1.01" transform="translate(-120.611 -248.189)" fill="#c5e0d6"></path>
        <path id="Tracé_129" data-name="Tracé 129" d="M219.372,216.045c-9.069,21.73-6.267,53.635,9.514,83.775s40.408,50.618,63.433,55.543c9.068-21.729,6.267-53.635-9.515-83.775S242.4,220.97,219.372,216.045" transform="translate(-137.75 -138.913)" fill="#c5e0d6"></path>
        <path id="Tracé_130" data-name="Tracé 130" d="M311.587,375.893a.53.53,0,0,1-.47-.284L244.262,247.925a.53.53,0,1,1,.939-.492l66.855,127.683a.531.531,0,0,1-.469.776" transform="translate(-157.017 -158.912)" fill="#fff"></path>
        <path id="Tracé_131" data-name="Tracé 131" d="M254.345,326.259a.56.56,0,0,1-.09-.008l-19.071-3.281a.53.53,0,1,1,.18-1.045l19.071,3.281a.53.53,0,0,1-.089,1.053" transform="translate(-150.936 -206.987)" fill="#fff"></path>
        <path id="Tracé_132" data-name="Tracé 132" d="M294.21,447.342a.509.509,0,0,1-.057,0l-32.226-3.445a.53.53,0,1,1,.113-1.054l32.226,3.445a.53.53,0,0,1-.056,1.057" transform="translate(-168.11 -284.736)" fill="#fff"></path>
        <path id="Tracé_133" data-name="Tracé 133" d="M270.886,384.2a.546.546,0,0,1-.068,0l-26.8-3.414a.53.53,0,0,1,.134-1.052l26.8,3.415a.53.53,0,0,1-.066,1.056" transform="translate(-156.599 -244.159)" fill="#fff"></path>
        <path id="Tracé_134" data-name="Tracé 134" d="M283.436,290.835a.53.53,0,0,1-.48-.754l8.168-17.543a.53.53,0,1,1,.961.447l-8.167,17.543a.53.53,0,0,1-.481.306" transform="translate(-181.903 -175.04)" fill="#fff"></path>
        <path id="Tracé_135" data-name="Tracé 135" d="M346.99,392.574a.53.53,0,0,1-.465-.784l15.526-28.448a.53.53,0,0,1,.931.508L347.456,392.3a.53.53,0,0,1-.466.276" transform="translate(-222.767 -233.445)" fill="#fff"></path>
        <path id="Tracé_136" data-name="Tracé 136" d="M313.9,337.437a.53.53,0,0,1-.47-.775L325.9,312.688a.53.53,0,1,1,.941.489l-12.463,23.975a.53.53,0,0,1-.471.286" transform="translate(-201.493 -200.869)" fill="#fff"></path>
        <rect id="Rectangle_26" data-name="Rectangle 26" width="105.655" height="101.753" transform="translate(120.956 137.31)" fill="#fff"></rect>
        <path id="Tracé_137" data-name="Tracé 137" d="M490.983,215.872H385.328l-46.534,60.24H444.449Z" transform="translate(-217.838 -138.802)" fill="#3b4f66"></path>
        <path id="Tracé_138" data-name="Tracé 138" d="M490.983,215.871H385.328l-46.534,60.24H444.449l1.929-2.5Zm-4.426,2.5-20.374,26.374H442.891l20.374-26.374Zm-25.789,0-20.374,26.374H417.1l20.374-26.374Zm-25.79,0L414.6,244.743H391.312l20.374-26.374Zm-25.789,0-20.374,26.374H365.523L385.9,218.368ZM343.22,273.615l20.374-26.375h23.293l-20.374,26.375Zm25.789,0,20.374-26.375h23.292L392.3,273.615Zm25.79,0,20.374-26.375h23.293l-20.374,26.375Zm25.789,0,20.374-26.375h23.293L443.88,273.615Z" transform="translate(-217.838 -138.801)" fill="#8fa7b8"></path>
        <rect id="Rectangle_27" data-name="Rectangle 27" width="4.15" height="45.41" transform="translate(178.327 193.653)" fill="#c6c6c6"></rect>
        <rect id="Rectangle_28" data-name="Rectangle 28" width="17.09" height="45.41" transform="translate(182.477 193.653)" fill="#5f8199"></rect>
        <rect id="Rectangle_29" data-name="Rectangle 29" width="12.693" height="53.213" transform="translate(160.18 185.85)" fill="#f6cd7d"></rect>
        <rect id="Rectangle_30" data-name="Rectangle 30" width="12.693" height="8.323" transform="translate(192.328 177.527)" fill="#f6cd7d"></rect>
        <path id="Tracé_139" data-name="Tracé 139" d="M433.668,497.248h-8.324v61.537h8.323V505.571h32.149v-8.323Z" transform="translate(-273.489 -319.721)" fill="#dea364"></path>
        <path id="Tracé_140" data-name="Tracé 140" d="M681.264,215.872l-46.534,60.24V377.865h8.323V278.953l38.211-49.466Z" transform="translate(-408.12 -138.802)" fill="#f6cd7d"></path>
        <path id="Tracé_141" data-name="Tracé 141" d="M765.071,215.872l46.534,60.24V377.865h-8.323V278.953l-38.211-49.466Z" transform="translate(-491.926 -138.802)" fill="#f6cd7d"></path>
        <path id="Tracé_142" data-name="Tracé 142" d="M750.547,254.008l-8.065,10.44,30.146,39.026v98.912h16.129V303.474Z" transform="translate(-477.402 -163.322)" fill="#dea364"></path>
        <path id="Tracé_143" data-name="Tracé 143" d="M718.335,322.276l-30.146-39.025-30.147,39.025v98.912h60.293Z" transform="translate(-423.109 -182.125)" fill="#3b4f66"></path>
        <path id="Tracé_144" data-name="Tracé 144" d="M706.239,377.89v79.057h-48.2V362.234l18.053-23.372Z" transform="translate(-423.108 -217.882)" fill="#5f8199"></path>
        <rect id="Rectangle_31" data-name="Rectangle 31" width="4.15" height="20.632" transform="translate(178.327 147.103)" fill="#c6c6c6"></rect>
        <rect id="Rectangle_32" data-name="Rectangle 32" width="17.09" height="20.632" transform="translate(182.477 147.103)" fill="#5f8199"></rect>
        <rect id="Rectangle_33" data-name="Rectangle 33" width="17.09" height="5.47" transform="translate(182.477 147.103)" fill="#3b4f66"></rect>
        <rect id="Rectangle_34" data-name="Rectangle 34" width="17.09" height="5.47" transform="translate(182.477 193.653)" fill="#3b4f66"></rect>
        <path id="Tracé_145" data-name="Tracé 145" d="M683.262,469.262a.53.53,0,0,1-.53-.53V357.722a.53.53,0,0,1,1.06,0v111.01a.53.53,0,0,1-.53.53" transform="translate(-438.984 -229.668)" fill="#fff"></path>
        <path id="Tracé_146" data-name="Tracé 146" d="M754.613,431.687a.53.53,0,0,1-.53-.53V299.283a.53.53,0,0,1,1.06,0V431.157a.53.53,0,0,1-.53.53" transform="translate(-484.861 -192.093)" fill="#fff"></path>
        <path id="Tracé_147" data-name="Tracé 147" d="M825.965,491.047a.53.53,0,0,1-.53-.53V391.6a.53.53,0,0,1,1.06,0v98.913a.53.53,0,0,1-.53.53" transform="translate(-530.739 -251.453)" fill="#fff"></path>
        <path id="Tracé_148" data-name="Tracé 148" d="M717.378,541.993H657.085a.53.53,0,0,1,0-1.06h60.293a.53.53,0,1,1,0,1.06" transform="translate(-422.153 -347.81)" fill="#fff"></path>
        <path id="Tracé_149" data-name="Tracé 149" d="M717.378,473.05H657.085a.53.53,0,0,1,0-1.06h60.293a.53.53,0,1,1,0,1.06" transform="translate(-422.153 -303.481)" fill="#fff"></path>
        <path id="Tracé_150" data-name="Tracé 150" d="M441.169,249.244h2.064a21.745,21.745,0,0,0,17.209-8.452l4.08-5.281a2.935,2.935,0,0,0-2.323-4.729h-7.126a6.52,6.52,0,0,0-5.16,2.534l-10.128,13.11a1.749,1.749,0,0,0,1.384,2.818" transform="translate(-282.537 -148.389)" fill="#5f8199"></path>
        <path id="Tracé_151" data-name="Tracé 151" d="M528.15,243.8H530.4a15.823,15.823,0,0,0,12.48-6.1l2.292-2.888a2.5,2.5,0,0,0-1.969-4.03h-6.926a6.608,6.608,0,0,0-5.212,2.546l-4.952,6.3a2.581,2.581,0,0,0,2.036,4.168" transform="translate(-337.928 -148.389)" fill="#5f8199"></path>
        <path id="Tracé_152" data-name="Tracé 152" d="M606.017,240.013h.79a14.087,14.087,0,0,0,10.874-5.132l.322-.391a2.267,2.267,0,0,0-1.75-3.708h-3.759a6.9,6.9,0,0,0-5.325,2.513l-2.748,3.337a2.067,2.067,0,0,0,1.6,3.381" transform="translate(-388.326 -148.389)" fill="#5f8199"></path>
        <path id="Tracé_153" data-name="Tracé 153" d="M397.789,321.348h.674a16.934,16.934,0,0,0,13.4-6.58l.259-.362a1.71,1.71,0,0,0-1.353-2.755h-6.451a5.407,5.407,0,0,0-4.279,2.1l-3.649,4.749a1.767,1.767,0,0,0,1.4,2.848" transform="translate(-254.633 -200.386)" fill="#5f8199"></path>
        <rect id="Rectangle_35" data-name="Rectangle 35" width="9.467" height="36.726" transform="translate(42.659 202.338)" fill="#8fa7b8"></rect>
        <path id="Tracé_154" data-name="Tracé 154" d="M86.3,497.25H41.752L3.42,546.872l1.393,4.1H49.357l38.332-49.622Z" transform="translate(-2.199 -319.723)" fill="#6c8ca6"></path>
        <path id="Tracé_155" data-name="Tracé 155" d="M86.3,497.25H41.752L3.42,546.872H47.964Z" transform="translate(-2.199 -319.723)" fill="#3b4f66"></path>
        <path id="Tracé_156" data-name="Tracé 156" d="M84.709,499.306l.973-1.262.615-.8H41.752l-1.59,2.059h0L23.382,521.029h0l-1.311,1.7L3.421,546.87H47.965l18.371-23.781h0l.758-.983,17.612-22.8Zm-42.489,0H61.406l-16.78,21.723H25.439Zm.816,23.783L26.253,544.814H7.066l16.782-21.725ZM47.5,544.814H28.309l16.783-21.725H64.279Zm18.373-23.785H46.683l16.781-21.723H82.65Z" transform="translate(-2.2 -319.721)" fill="#8fa7b8"></path>
        <path id="Tracé_157" data-name="Tracé 157" d="M97.227,523.465h1.956a13.746,13.746,0,0,0,10.842-5.3l1.991-2.509a2.168,2.168,0,0,0-1.71-3.5h-6.017a5.739,5.739,0,0,0-4.527,2.211l-4.3,5.473a2.242,2.242,0,0,0,1.768,3.621" transform="translate(-61.071 -329.309)" fill="#5f8199"></path>
        <path id="Tracé_158" data-name="Tracé 158" d="M161.031,520.181h.687a12.238,12.238,0,0,0,9.448-4.459l.28-.34a1.97,1.97,0,0,0-1.521-3.222h-3.266a5.993,5.993,0,0,0-4.627,2.184l-2.387,2.9a1.8,1.8,0,0,0,1.386,2.938" transform="translate(-102.383 -329.309)" fill="#5f8199"></path>
        <rect id="Rectangle_36" data-name="Rectangle 36" width="9.467" height="36.726" transform="translate(97.013 202.338)" fill="#8fa7b8"></rect>
        <path id="Tracé_159" data-name="Tracé 159" d="M238.54,497.25H194l-38.332,49.622,1.392,4.1H201.6l38.332-49.622Z" transform="translate(-100.089 -319.723)" fill="#6c8ca6"></path>
        <path id="Tracé_160" data-name="Tracé 160" d="M238.54,497.25H194l-38.332,49.622h44.544Z" transform="translate(-100.089 -319.723)" fill="#3b4f66"></path>
        <path id="Tracé_161" data-name="Tracé 161" d="M236.953,499.306l.967-1.255.62-.8H194l-1.59,2.059h0l-16.781,21.723h0l-1.331,1.724-18.63,24.117h44.544l18.371-23.781h0l.738-.957,17.632-22.826Zm-42.489,0h19.187L196.87,521.029H177.683Zm.815,23.783L178.5,544.814H159.31l16.782-21.725Zm4.461,21.725H180.553l16.783-21.725h19.187Zm18.373-23.785H198.927l16.781-21.723h19.187Z" transform="translate(-100.09 -319.721)" fill="#8fa7b8"></path>
        <path id="Tracé_162" data-name="Tracé 162" d="M1011,231.756c.715,2.126,3.181,4.254,4.39,5,1.8,1.112,4.778-1.764,3.737-3.554a13.949,13.949,0,0,1-1.374-3.221c-.264-1.094.125-3.779-.054-4.018-.135-.18-.757-.131-1.019.275a6.584,6.584,0,0,0-.411,1.289c-.16.45-.39.175-.49-.026a9.859,9.859,0,0,1-.862-3.209c-.117-1-.873-1.012-1.558-.667-3.252,1.641-3.1,5.94-2.359,8.13" transform="translate(-649.773 -143.656)" fill="#eb987a"></path>
        <path id="Tracé_163" data-name="Tracé 163" d="M1302.392,389.812c.216,2.588,1.357,3.722.522,3.722s-3.73-5.971-4.879-8.513c.948-.684,2.526-1.433,3.4-1,1.1.54.722,3.016.954,5.793" transform="translate(-834.613 -246.835)" fill="#5f8199"></path>
        <path id="Tracé_164" data-name="Tracé 164" d="M1297.421,608.274c.412,1.224.146,3.246.1,4.865a15.973,15.973,0,0,1-.2,3.763c-.591,2.2-5.087,3.8-6.363,2.294-.963-1.136,1.879-6.242.389-8.924-.329-.591-3.11-5.224-4.568-7.167-1.84-2.453,2.806-5.145,4.321-2.781,1.476,2.3,1.774,3.7,3.016,4.823,1.107,1,2.475.664,3.3,3.128" transform="translate(-827.102 -385.41)" fill="#3b4f66"></path>
        <path id="Tracé_165" data-name="Tracé 165" d="M1209.631,432.513c.385,3.333,1.1,11.15,3.41,16.314,2.083,4.651,13.029,25.6,16.633,32.6-1.752,1.229-6.064,4.071-7.87,5.19-1.8-2.161-15.919-22.1-19.731-29.254-4.034-7.571-8.847-20.375-10.274-24.817-1.226-3.817-6.491-15.74-6.248-18.084,2.962-2.731,15.275-6.317,18.241-6.317,5.551,7.011,5.01,17.186,5.839,24.366" transform="translate(-762.282 -262.431)" fill="#5f8199"></path>
        <path id="Tracé_166" data-name="Tracé 166" d="M1211.374,486.67c-3.116-4.686-6.025-9.253-7.5-12.019-4.034-7.571-8.848-20.374-10.275-24.816-.86-2.684-3.718-9.371-5.254-13.922,1.547-3.387,9.414,3.763,10.366,8.557,1.137,5.731,3.2,16.317,5.575,23.008,2.151,6.062,9.145,17.979,7.086,19.192" transform="translate(-764.085 -279.718)" fill="#3b4f66"></path>
        <path id="Tracé_167" data-name="Tracé 167" d="M1311.259,407.378c-.761-1.979-3.251-3.838-4.463-4.467-1.8-.936-4.676,2.015-3.6,3.65a12.431,12.431,0,0,1,1.438,2.977c.289,1.025-.028,3.614.155,3.829.138.162.75.072,1-.332a6.359,6.359,0,0,0,.373-1.259c.147-.44.38-.194.485-.009a8.844,8.844,0,0,1,.933,3c.141.942.889.9,1.556.528,3.171-1.791,2.909-5.881,2.125-7.919" transform="translate(-837.779 -258.949)" fill="#eb987a"></path>
        <path id="Tracé_168" data-name="Tracé 168" d="M1155.464,650.162h-9.794c-3.016,0-1.923-1.4-.271-2.108,1.451-.625,3.5-1,4.855-2.268,1.022-.958,1.59-4.119,1.753-5.739.114-1.126,4.107-.794,3.978.486-.2,1.967.868,6.421.688,8.214-.1.96-.306,1.414-1.208,1.414" transform="translate(-735.424 -411.098)" fill="#3b4f66"></path>
        <path id="Tracé_169" data-name="Tracé 169" d="M1180.352,408.147c4.786,13.028-3.554,18.35-5.817,19.97h-5.36c-1.226,10.716-3.577,23.613-3.706,28.461-.2,7.5-.15,30.708-.466,39.142h-10.043c-1.139-6.788-4.882-26.656-4.364-41.271.517-14.573-.54-31.726-.064-39.894,3.1-.578,22.7-6.061,29.821-6.408" transform="translate(-739.689 -262.431)" fill="#5f8199"></path>
        <path id="Tracé_170" data-name="Tracé 170" d="M1166.813,267.976c-.378,3.908-6.162,6.281-9.247,6.281s-2.93-3.91-2.178-7.764c.855-4.383,3.991-6.2,7.055-5.846,3.8.434,4.757,3.321,4.37,7.33" transform="translate(-742.599 -167.564)" fill="#eb987a"></path>
        <path id="Tracé_171" data-name="Tracé 171" d="M1170.624,288.212c2.29,1.556-9.848,5.577-9.784,3.3.057-2.043.271-4.107.516-7.044.251-3.016,9.051-6.949,8.953-4.319-.109,2.918-1.493,6.833.315,8.061" transform="translate(-746.398 -179.577)" fill="#eb987a"></path>
        <path id="Tracé_172" data-name="Tracé 172" d="M1170.157,263.535c0,3.525,0,6.616-3.367,6.616a4.029,4.029,0,0,1-2.963-1.089c-.806-.835-.122-3.194-.071-3.844.12-1.547-1.591-1.377-2.272.358-.775-.136-.6-1.543-.6-2.17-.013-3.123-1.644-3.565-1.854-4.77-.34-1.955,3.068-2.837,5.252-2.708,4.563.27,5.873,4.082,5.873,7.607" transform="translate(-745.221 -164.549)" fill="#2d374d"></path>
        <path id="Tracé_173" data-name="Tracé 173" d="M1127.352,300.72c-1.873-2.768-8.48-11.775-12.113-15.862-3.434-3.864-5.1-5.857-11.3-9.135-3.244-1.715-9.068-3.333-14.605-4.5-3.434-.722-5.954-1.52-8.179-1.454a18.183,18.183,0,0,0-7.8,1.69c-2.738,1.072-8.6.91-12.287,0-6.582-1.631-12.818-3.031-16.874-6.21-4.129-3.237-11.182-10.888-13.909-13.537-1.471-1.43-2.6-1.764-4.448-.511-2.036,1.383-3.4,4.717-1.384,7.208,2.1,2.6,9.457,11.006,13.426,14.767,3.752,3.556,6.85,5.141,13.308,7.876,2.494,1.056,4.843,2.1,7.083,2.892a6.757,6.757,0,0,1,4.254,5.693c1.287,9.425,1.253,25.458,5.562,27.629,9.262,4.667,30.93.044,35.591-5.972-1.066-7.348-3.582-16.681-5.834-24.363,3.874,1.087,7.245,2.287,9.7,4.581,3.837,3.579,10.939,12.51,13.429,15.383,1.343,1.55,2.442,1.981,4.387.89,2.147-1.2,3.792-4.408,2-7.063" transform="translate(-658.064 -161.019)" fill="#f6cd7d"></path>
        <path id="Tracé_174" data-name="Tracé 174" d="M1234.129,342.7a17.465,17.465,0,0,0-6.1-1.99c.444,1.308.9,2.744,1.344,4.271,3.875,1.086,7.244,2.286,9.7,4.579,1.32,1.23,3.025,3.095,4.8,5.128-.006-2.136-4.446-9.379-9.747-11.988" transform="translate(-789.6 -219.073)" fill="#dea364"></path>
        <path id="Tracé_175" data-name="Tracé 175" d="M620.332,30.522A30.522,30.522,0,1,1,589.809,0a30.522,30.522,0,0,1,30.522,30.522" transform="translate(-359.611)" fill="#88bfb1"></path>
        <path id="Tracé_176" data-name="Tracé 176" d="M627.377,43.05l7.879-18.144H624.873l-7.485,22.622h10.98l-8.44,20.639L642.072,43.05Z" transform="translate(-396.969 -16.014)" fill="#fff"></path>
      </g>
    </g>
  </g>
</svg>
