<?xml version="1.0" encoding="UTF-8"?>
<svg xmlns="http://www.w3.org/2000/svg" width="56.93" height="51.882" viewBox="0 0 56.93 51.882">
  <g id="Groupe_182" data-name="Groupe 182" transform="translate(-388.78 -830.513)">
    <path id="open-window" d="M0,1.625v49.8l12.342-4.114H43.089L55.43,51.426V1.625L43.089,5.739H12.342ZM3.464,6.389l6.929,2.328V19.272L3.464,18.081Zm48.5,0V18.081l-6.929,1.191V8.716ZM13.858,9.2H41.573V43.847H13.858ZM3.464,21.654l6.929,1.191v21.49L3.464,46.662Zm48.5,0V46.662l-6.929-2.328V22.844Z" transform="translate(389.53 829.929)" fill="#3b4f66" stroke="#fff" stroke-width="1.5"></path>
    <path id="Tracé_250" data-name="Tracé 250" d="M1143.667,896.694c0,24.505,14.229,35.572,14.229,35.572V896.694S1149.991,896.3,1143.667,896.694Z" transform="translate(-726.373 -58.032)" fill="#b4ccc6" stroke="#b4ccc6" stroke-width="0.5"></path>
    <path id="Tracé_271" data-name="Tracé 271" d="M1143,933.281s9.57-2.436,12.989-20.948" transform="translate(-739.404 -60.102)" fill="none" stroke="#b4ccc6" stroke-linecap="round" stroke-width="1.5"></path>
  </g>
</svg>
