<svg id="check-box" xmlns="http://www.w3.org/2000/svg" width="19.516" height="18.121" viewBox="0 0 19.516 18.121">
  <path id="Tracé_385" data-name="Tracé 385" d="M25.254,5.828a.7.7,0,0,1,0,.987L15.5,16.572a.7.7,0,0,1-.987,0L10.327,12.39a.7.7,0,0,1,.987-.987L15,15.093l9.264-9.266a.7.7,0,0,1,.987,0Z" transform="translate(-5.942 -4.23)" fill="#3b4f66" fill-rule="evenodd"/>
  <path id="Tracé_386" data-name="Tracé 386" d="M3.375,19.405A2.091,2.091,0,0,0,5.466,21.5H19.405A2.091,2.091,0,0,0,21.5,19.405v-6.97a.7.7,0,1,0-1.394,0v6.97a.7.7,0,0,1-.7.7H5.466a.7.7,0,0,1-.7-.7V5.466a.7.7,0,0,1,.7-.7H16.617a.7.7,0,0,0,0-1.394H5.466A2.091,2.091,0,0,0,3.375,5.466Z" transform="translate(-3.375 -3.375)" fill="#3b4f66" fill-rule="evenodd"/>
</svg>
