<?xml version="1.0" encoding="UTF-8"?>
<svg xmlns="http://www.w3.org/2000/svg" width="41.922" height="41.933" viewBox="0 0 41.922 41.933">
  <g id="_048-piggy_bank" data-name="048-piggy bank" transform="translate(-0.069)">
    <path id="Tracé_262" data-name="Tracé 262" d="M235.931,80h3.276v3.276h-3.276Z" transform="translate(-216.545 -73.448)" fill="#fff"></path>
    <path id="Tracé_263" data-name="Tracé 263" d="M40.353,22.932a2.654,2.654,0,0,1-2.143-.947,2.843,2.843,0,0,1-.616-2.557L39.175,13.1H33.8A4.714,4.714,0,0,0,30.779,14.2a12.774,12.774,0,0,0-3.31-.956,8.19,8.19,0,1,0-12.89,0,13.1,13.1,0,0,0-8.319,4.729l0,0A1.638,1.638,0,1,1,3.708,15.9L1.162,13.838A4.911,4.911,0,0,0,4.11,21.765a13.108,13.108,0,0,0,6.166,16.01c2,1.065,2.886,2.348,2.886,4.158h3.276c0-1.928,1.689-2.616,3.269-2.617h2.633c1.581,0,3.27.689,3.27,2.617h3.276c0-1.81.888-3.1,2.881-4.169h0a12.5,12.5,0,0,0,5.148-5h5.074V22.932ZM21.024,3.276A4.914,4.914,0,1,1,16.11,8.19,4.92,4.92,0,0,1,21.024,3.276ZM38.715,29.484H34.9l-.445.932a9.989,9.989,0,0,1-4.239,4.463,9.432,9.432,0,0,0-3.259,2.734c-.036-.031-.071-.063-.107-.093a7.118,7.118,0,0,0-4.5-1.48H19.705a7.119,7.119,0,0,0-4.5,1.48c-.037.03-.072.063-.109.094a9.4,9.4,0,0,0-3.274-2.729,9.83,9.83,0,0,1,4.62-18.505h9.173a9.594,9.594,0,0,1,4.733,1.256l1.307.731.845-1.236A1.6,1.6,0,0,1,33.8,16.38h1.178l-.564,2.254a6.122,6.122,0,0,0,1.325,5.5A5.885,5.885,0,0,0,38.715,26Z" transform="translate(0)" fill="#fff"></path>
    <path id="Tracé_264" data-name="Tracé 264" d="M331.931,280h3.276v3.276h-3.276Z" transform="translate(-304.682 -257.068)" fill="#fff"></path>
  </g>
</svg>
