<?xml version="1.0" encoding="UTF-8"?>
<svg xmlns="http://www.w3.org/2000/svg" width="32.5" height="37.858" viewBox="0 0 32.5 37.858">
  <g id="_028-security" data-name="028-security" transform="translate(-36.27)">
    <path id="Tracé_260" data-name="Tracé 260" d="M115.059,122.91l1.656,2.447,1.388-.939v8.875h14.773v-8.875l1.388.939,1.656-2.447-10.43-7.061Zm14.862,7.428h-2.955V126.5h-2.955v3.841h-2.955v-7.921l4.432-3,4.432,3Z" transform="translate(-72.969 -107.292)" fill="#fff"></path>
    <path id="Tracé_261" data-name="Tracé 261" d="M67.293,5.909a4.437,4.437,0,0,1-4.432-4.432V0H42.179V1.477a4.437,4.437,0,0,1-4.432,4.432H36.27V17.264A20.827,20.827,0,0,0,49.425,36.62l3.1,1.238,3.1-1.238A20.827,20.827,0,0,0,68.77,17.264V5.909ZM65.816,17.264a17.832,17.832,0,0,1-11.3,16.613L54,34.085V28.955H51.043v5.131l-.521-.208a17.832,17.832,0,0,1-11.3-16.613V8.715a7.409,7.409,0,0,0,5.761-5.761h6.058V5.909H54V2.955h6.057a7.41,7.41,0,0,0,5.761,5.761Z" fill="#fff"></path>
  </g>
</svg>
