<?xml version="1.0" encoding="UTF-8"?>
<svg xmlns="http://www.w3.org/2000/svg" xmlns:xlink="http://www.w3.org/1999/xlink" width="43" height="41.676" viewBox="0 0 43 41.676">
  <defs>
    <clipPath id="clip-path">
      <rect id="Rectangle_47" data-name="Rectangle 47" width="43" height="41.676" transform="translate(0 0)" fill="#fff"></rect>
    </clipPath>
  </defs>
  <g id="Groupe_54" data-name="Groupe 54" transform="translate(0 0)" clip-path="url(#clip-path)">
    <path id="Tracé_255" data-name="Tracé 255" d="M22.5,31h-2A7.508,7.508,0,0,1,13,23.5v-5A1.5,1.5,0,0,1,14.5,17h14A1.5,1.5,0,0,1,30,18.5v5A7.508,7.508,0,0,1,22.5,31M16,20v3.5A4.505,4.505,0,0,0,20.5,28h2A4.505,4.505,0,0,0,27,23.5V20Z" fill="#fff"></path>
    <path id="Tracé_256" data-name="Tracé 256" d="M25.5,20h-8A1.5,1.5,0,0,1,16,18.5v-6a1.5,1.5,0,0,1,3,0V17h5V12.5a1.5,1.5,0,0,1,3,0v6A1.5,1.5,0,0,1,25.5,20" fill="#fff"></path>
    <path id="Tracé_257" data-name="Tracé 257" d="M35.16,37.6a1.5,1.5,0,0,1-.29-.03c-.09-.02-.19-.05-.28-.08a2.148,2.148,0,0,1-.26-.14,1.421,1.421,0,0,1-.221-.19,1.084,1.084,0,0,1-.189-.23,1.141,1.141,0,0,1-.14-.25,1.6,1.6,0,0,1-.091-.28c-.009-.1-.019-.2-.019-.3a1.519,1.519,0,0,1,.439-1.06.99.99,0,0,1,.221-.18,1.3,1.3,0,0,1,.26-.14,1.47,1.47,0,0,1,1.639.32,1.7,1.7,0,0,1,.321.49,1.253,1.253,0,0,1,.089.28,1.362,1.362,0,0,1,.031.29,1.456,1.456,0,0,1-.12.58,1.229,1.229,0,0,1-.14.25,1.022,1.022,0,0,1-.181.23,1.52,1.52,0,0,1-1.069.44" fill="#fff"></path>
    <path id="Tracé_258" data-name="Tracé 258" d="M15.511,41.676a7.359,7.359,0,0,1-3.134-.7A21.449,21.449,0,0,1,.031,20.345,21.686,21.686,0,0,1,20.345.031,21.507,21.507,0,0,1,40.381,31.793a1.5,1.5,0,0,1-2.633-1.438,18.5,18.5,0,1,0-24.1,7.9,4.337,4.337,0,0,0,4.24-.284A4.515,4.515,0,0,0,20,34.149V29.5a1.5,1.5,0,0,1,3,0v4.648a7.5,7.5,0,0,1-3.5,6.358,7.423,7.423,0,0,1-3.989,1.169" fill="#fff"></path>
  </g>
</svg>
