<svg xmlns="http://www.w3.org/2000/svg" width="18.723" height="18.724" viewBox="0 0 18.723 18.724">
  <path id="phone" d="M5.565,10.741l-.025-.072A18.54,18.54,0,0,1,4.5,5.54,1.043,1.043,0,0,1,5.54,4.5H8.661a2.08,2.08,0,0,1,2.08,2.08v2.08a2.08,2.08,0,0,1-2.08,2.08H7.79a16.7,16.7,0,0,0,9.193,9.192v-.87a2.08,2.08,0,0,1,2.08-2.08h2.08a2.08,2.08,0,0,1,2.08,2.08v3.121a1.214,1.214,0,0,1-1.04,1.04,16.041,16.041,0,0,1-5.2-1.04A18.882,18.882,0,0,1,5.565,10.741Z" transform="translate(-4.5 -4.5)" fill="#fff" fill-rule="evenodd"/>
</svg>
