<?xml version="1.0" encoding="UTF-8"?>
<svg xmlns="http://www.w3.org/2000/svg" xmlns:xlink="http://www.w3.org/1999/xlink" width="832.993" height="488.42" viewBox="0 0 832.993 488.42">
  <defs>
    <clipPath id="clip-path">
      <rect id="Rectangle_37" data-name="Rectangle 37" width="832.993" height="488.42" fill="none"></rect>
    </clipPath>
  </defs>
  <g id="Groupe_39" data-name="Groupe 39" transform="translate(-101 -2280)">
    <g id="Groupe_36" data-name="Groupe 36" transform="translate(101 2280)">
      <g id="Groupe_35" data-name="Groupe 35" clip-path="url(#clip-path)">
        <path id="Tracé_102" data-name="Tracé 102" d="M840.12,107.089c97.092,81.793-29.926,285.284-155.026,357.423s-323.219,51.849-386.728-58.285S257.695,151.593,382.794,79.454c57-32.87,152.331-41.407,229.889-11.422,100.635,38.907,153.938-22.861,227.438,39.057" transform="translate(-98.391 -18.474)" fill="#eef5e5"></path>
        <path id="Tracé_103" data-name="Tracé 103" d="M1025.337,585.988a177.181,177.181,0,0,0,20.078-30.405c20.8-39.726,24.493-81.78,12.54-110.421-30.348,6.492-62.808,33.483-83.609,73.209-11.918,22.762-18.217,46.287-19.177,67.617Z" transform="translate(-355.869 -165.855)" fill="#c5e0d6"></path>
        <path id="Tracé_104" data-name="Tracé 104" d="M1000.915,593.865a.932.932,0,0,1-.825-1.364l67.124-128.2a.932.932,0,0,1,1.651.865l-67.124,128.2a.932.932,0,0,1-.826.5" transform="translate(-372.565 -172.8)" fill="#fff"></path>
        <path id="Tracé_105" data-name="Tracé 105" d="M1027.373,615.944a.932.932,0,0,1-.127-1.855l42.581-5.92a.932.932,0,0,1,.257,1.846l-42.581,5.92a.908.908,0,0,1-.129.009" transform="translate(-382.423 -226.583)" fill="#fff"></path>
        <path id="Tracé_106" data-name="Tracé 106" d="M1053.153,566.149a.932.932,0,0,1-.175-1.847l35.771-6.858a.932.932,0,0,1,.352,1.83l-35.772,6.859a.991.991,0,0,1-.176.016" transform="translate(-392.028 -207.681)" fill="#fff"></path>
        <path id="Tracé_107" data-name="Tracé 107" d="M1080.805,514.162a.932.932,0,0,1-.213-1.839l23.164-5.471a.932.932,0,0,1,.429,1.814l-23.164,5.471a.94.94,0,0,1-.215.025" transform="translate(-402.33 -188.829)" fill="#fff"></path>
        <path id="Tracé_108" data-name="Tracé 108" d="M1013.209,601.716a.931.931,0,0,1-.832-.511l-19.391-38.369a.932.932,0,0,1,1.663-.84l19.391,38.369a.932.932,0,0,1-.831,1.351" transform="translate(-369.92 -209.193)" fill="#fff"></path>
        <path id="Tracé_109" data-name="Tracé 109" d="M1041.75,555.484a.933.933,0,0,1-.853-.555l-14.74-33.306a.932.932,0,0,1,1.7-.755l14.74,33.307a.932.932,0,0,1-.851,1.309" transform="translate(-382.287 -193.854)" fill="#fff"></path>
        <path id="Tracé_110" data-name="Tracé 110" d="M1072.989,509.3a.932.932,0,0,1-.868-.591l-8.7-22.155a.932.932,0,0,1,1.735-.681l8.7,22.154a.932.932,0,0,1-.867,1.272" transform="translate(-396.177 -180.801)" fill="#fff"></path>
        <path id="Tracé_111" data-name="Tracé 111" d="M986.2,547.308H915.612a8.238,8.238,0,0,1-8.238-8.238V494.353h87.06V539.07a8.239,8.239,0,0,1-8.238,8.238" transform="translate(-338.061 -184.182)" fill="#5f8199"></path>
        <path id="Tracé_112" data-name="Tracé 112" d="M967.972,601.491H945.716a14.036,14.036,0,0,1-11.768-6.385l-10.631-16.353h67.054L979.74,595.106a14.035,14.035,0,0,1-11.767,6.385" transform="translate(-344.001 -215.627)" fill="#3b4f66"></path>
        <path id="Tracé_113" data-name="Tracé 113" d="M993.106,561.7h-87.06a2.236,2.236,0,1,1,0-4.472h87.06a2.236,2.236,0,1,1,0,4.472" transform="translate(-336.734 -207.606)" fill="#fff"></path>
        <path id="Tracé_114" data-name="Tracé 114" d="M993.106,541.873h-87.06a2.236,2.236,0,1,1,0-4.472h87.06a2.236,2.236,0,1,1,0,4.472" transform="translate(-336.734 -200.22)" fill="#fff"></path>
        <path id="Tracé_115" data-name="Tracé 115" d="M993.106,522.049h-87.06a2.236,2.236,0,1,1,0-4.472h87.06a2.236,2.236,0,1,1,0,4.472" transform="translate(-336.734 -192.834)" fill="#fff"></path>
        <path id="Tracé_116" data-name="Tracé 116" d="M936.08,200.18c7.6,13.172-10.313,19.635-30.856,31.5s-35.933,24.627-43.537,11.455,1.561-38.433,22.1-50.293,44.685-5.829,52.289,7.342" transform="translate(-320.051 -69.476)" fill="#fff"></path>
        <path id="Tracé_117" data-name="Tracé 117" d="M1000.26,259.193c11.9-28.123,8.822-91-52.9-103.54,45.606,2.386,81.983,40.172,82.754,85.834a87.018,87.018,0,0,1-13.83,48.727,128.032,128.032,0,0,0-20.33,69.266,8.683,8.683,0,0,1-8.682,8.682H898.1a8.736,8.736,0,0,1-8.736-8.736,130.28,130.28,0,0,0-4.117-32.64c6.04,22.314,16.407,33.789,37.923,33.789,18.563,0,31.907-10.632,39.839-30.246,9.741-24.091,25.167-42.579,37.249-71.138" transform="translate(-329.819 -57.992)" fill="#b4ccc6"></path>
        <path id="Tracé_118" data-name="Tracé 118" d="M907.583,285.1c-3.76,11.366-1.056,26.9,8.2,40.626s22.642,22.059,34.588,22.835c3.76-11.365,1.056-26.9-8.2-40.626S919.53,285.874,907.583,285.1" transform="translate(-337.529 -106.219)" fill="#88bfb1"></path>
        <path id="Tracé_119" data-name="Tracé 119" d="M975.425,454.982a2.236,2.236,0,0,1-2.236-2.236V384.914a2.236,2.236,0,0,1,4.472,0v67.832a2.236,2.236,0,0,1-2.236,2.236" transform="translate(-362.582 -142.575)" fill="#509993"></path>
        <path id="Tracé_120" data-name="Tracé 120" d="M1030.966,255.109c4.875,14.735,1.369,34.872-10.632,52.671s-29.355,28.6-44.843,29.605c-4.875-14.736-1.369-34.872,10.632-52.672s29.355-28.6,44.843-29.6" transform="translate(-362.649 -95.046)" fill="#509993"></path>
        <path id="Tracé_121" data-name="Tracé 121" d="M968.1,369h-89.17a10.984,10.984,0,0,1-10.972-10.971c0-24.529-6.769-47.831-19.576-67.389A89.673,89.673,0,0,1,928.3,152.018c46.8,2.449,84.081,41.116,84.872,88.03a89.274,89.274,0,0,1-14.186,49.975,125.545,125.545,0,0,0-19.975,68.057A10.93,10.93,0,0,1,968.1,369M923.439,156.363a85.227,85.227,0,0,0-71.318,131.823c13.285,20.288,20.307,44.438,20.307,69.839a6.507,6.507,0,0,0,6.5,6.5H968.1a6.453,6.453,0,0,0,6.446-6.446A130,130,0,0,1,995.23,287.6a85.23,85.23,0,0,0-67.16-131.119q-2.322-.121-4.63-.121" transform="translate(-310.644 -56.59)" fill="#5f8199"></path>
        <path id="Tracé_122" data-name="Tracé 122" d="M137.968,387.495c3.02,35.294,28.474,74.385,69.651,100.938s87.289,33.608,120.684,21.8c-3.02-35.294-28.474-74.385-69.651-100.938s-87.289-33.608-120.684-21.8" transform="translate(-51.403 -142.31)" fill="#88bfb1"></path>
        <path id="Tracé_123" data-name="Tracé 123" d="M333.544,517.626a.93.93,0,0,1-.5-.149L152.465,401.038a.932.932,0,0,1,1.01-1.567L334.05,515.911a.932.932,0,0,1-.506,1.715" transform="translate(-56.645 -148.776)" fill="#c5e0d6"></path>
        <path id="Tracé_124" data-name="Tracé 124" d="M228.1,520.737a.932.932,0,0,1-.292-1.816l52.35-17.3a.932.932,0,0,1,.584,1.769L228.4,520.69a.927.927,0,0,1-.292.047" transform="translate(-84.638 -186.871)" fill="#c5e0d6"></path>
        <path id="Tracé_125" data-name="Tracé 125" d="M191.738,480.753a.932.932,0,0,1-.238-1.832l42.189-11.209a.932.932,0,1,1,.479,1.8l-42.189,11.209a.936.936,0,0,1-.24.031" transform="translate(-71.089 -174.244)" fill="#c5e0d6"></path>
        <path id="Tracé_126" data-name="Tracé 126" d="M161.016,438.97a.932.932,0,0,1-.215-1.838l25.756-6.124a.932.932,0,0,1,.431,1.813l-25.756,6.124a.95.95,0,0,1-.216.025" transform="translate(-59.643 -160.572)" fill="#c5e0d6"></path>
        <path id="Tracé_127" data-name="Tracé 127" d="M249.2,440.414a.931.931,0,0,1-.918-.779l-7.2-43.055a.932.932,0,1,1,1.838-.307l7.2,43.055a.932.932,0,0,1-.765,1.073.992.992,0,0,1-.154.013" transform="translate(-89.815 -147.35)" fill="#c5e0d6"></path>
        <path id="Tracé_128" data-name="Tracé 128" d="M193.561,413.849a.932.932,0,0,1-.914-.754l-5.05-25.988a.932.932,0,0,1,1.83-.356l5.049,25.989a.931.931,0,0,1-.737,1.092.918.918,0,0,1-.179.018" transform="translate(-69.887 -143.811)" fill="#c5e0d6"></path>
        <path id="Tracé_129" data-name="Tracé 129" d="M223.262,216.045c-15.937,38.188-11.014,94.259,16.72,147.227S311,452.229,351.461,460.885C367.4,422.7,362.475,366.626,334.74,313.657S263.726,224.7,223.262,216.045" transform="translate(-79.818 -80.492)" fill="#c5e0d6"></path>
        <path id="Tracé_130" data-name="Tracé 130" d="M362.626,473.4a.932.932,0,0,1-.826-.5L244.308,248.512a.932.932,0,1,1,1.651-.864L363.451,472.041a.932.932,0,0,1-.824,1.364" transform="translate(-90.982 -92.081)" fill="#fff"></path>
        <path id="Tracé_131" data-name="Tracé 131" d="M269.192,329.547a.979.979,0,0,1-.159-.013l-33.516-5.767a.932.932,0,1,1,.316-1.836l33.515,5.766a.932.932,0,0,1-.157,1.85" transform="translate(-87.459 -119.937)" fill="#fff"></path>
        <path id="Tracé_132" data-name="Tracé 132" d="M319.02,450.754a.9.9,0,0,1-.1-.006l-56.634-6.054a.931.931,0,1,1,.2-1.852l56.634,6.054a.932.932,0,0,1-.1,1.858" transform="translate(-97.41 -164.988)" fill="#fff"></path>
        <path id="Tracé_133" data-name="Tracé 133" d="M291.589,387.593a.969.969,0,0,1-.119-.008l-47.105-6a.932.932,0,0,1,.235-1.848l47.106,6a.932.932,0,0,1-.117,1.856" transform="translate(-90.74 -141.476)" fill="#fff"></path>
        <path id="Tracé_134" data-name="Tracé 134" d="M283.837,304.925a.932.932,0,0,1-.844-1.325l14.354-30.83a.932.932,0,1,1,1.689.786l-14.354,30.831a.932.932,0,0,1-.845.538" transform="translate(-105.403 -101.426)" fill="#fff"></path>
        <path id="Tracé_135" data-name="Tracé 135" d="M347.391,414.924a.932.932,0,0,1-.817-1.378l27.286-49.994a.932.932,0,0,1,1.636.892L348.21,414.439a.932.932,0,0,1-.819.486" transform="translate(-129.081 -135.268)" fill="#fff"></path>
        <path id="Tracé_136" data-name="Tracé 136" d="M314.3,356.4a.931.931,0,0,1-.826-1.362l21.9-42.134a.932.932,0,1,1,1.653.86l-21.9,42.134a.931.931,0,0,1-.828.5" transform="translate(-116.754 -116.392)" fill="#fff"></path>
        <rect id="Rectangle_26" data-name="Rectangle 26" width="185.679" height="178.822" transform="translate(212.569 241.311)" fill="#fff"></rect>
        <path id="Tracé_137" data-name="Tracé 137" d="M606.252,215.872H420.574l-81.78,105.867H524.473Z" transform="translate(-126.225 -80.428)" fill="#3b4f66"></path>
        <path id="Tracé_138" data-name="Tracé 138" d="M606.253,215.871H420.574l-81.78,105.867H524.473l3.389-4.388Zm-7.778,4.389-35.8,46.351H521.735L557.54,220.26Zm-45.322,0-35.805,46.351H476.412l35.8-46.351Zm-45.323,0-35.8,46.351H431.089l35.806-46.351Zm-45.322,0L426.7,266.611H385.767l35.8-46.351ZM346.572,317.35,382.377,271h40.935L387.506,317.35Zm45.322,0L427.7,271h40.934L432.829,317.35Zm45.323,0L473.022,271h40.935L478.152,317.35Zm45.322,0L518.345,271h40.935L523.474,317.35Z" transform="translate(-126.225 -80.427)" fill="#8fa7b8"></path>
        <rect id="Rectangle_27" data-name="Rectangle 27" width="7.293" height="79.805" transform="translate(313.394 340.329)" fill="#c6c6c6"></rect>
        <rect id="Rectangle_28" data-name="Rectangle 28" width="30.035" height="79.805" transform="translate(320.687 340.329)" fill="#5f8199"></rect>
        <rect id="Rectangle_29" data-name="Rectangle 29" width="22.307" height="93.518" transform="translate(281.502 326.616)" fill="#f6cd7d"></rect>
        <rect id="Rectangle_30" data-name="Rectangle 30" width="22.307" height="14.627" transform="translate(338 311.988)" fill="#f6cd7d"></rect>
        <path id="Tracé_139" data-name="Tracé 139" d="M439.973,497.248H425.345V605.393h14.627V511.876h56.5V497.248Z" transform="translate(-158.471 -185.26)" fill="#dea364"></path>
        <path id="Tracé_140" data-name="Tracé 140" d="M716.51,215.872,634.73,321.738V500.561h14.627V326.731L716.51,239.8Z" transform="translate(-236.482 -80.428)" fill="#f6cd7d"></path>
        <path id="Tracé_141" data-name="Tracé 141" d="M765.071,215.872l81.78,105.867V500.561H832.223V326.731L765.071,239.8Z" transform="translate(-285.043 -80.428)" fill="#f6cd7d"></path>
        <path id="Tracé_142" data-name="Tracé 142" d="M756.655,254.008l-14.173,18.347,52.979,68.584v173.83h28.346V340.94Z" transform="translate(-276.627 -94.636)" fill="#dea364"></path>
        <path id="Tracé_143" data-name="Tracé 143" d="M764,351.834l-52.979-68.584-52.98,68.584v173.83H764Z" transform="translate(-245.168 -105.531)" fill="#3b4f66"></path>
        <path id="Tracé_144" data-name="Tracé 144" d="M742.745,407.45V546.385H658.04V379.937l31.727-41.075Z" transform="translate(-245.167 -126.25)" fill="#5f8199"></path>
        <rect id="Rectangle_31" data-name="Rectangle 31" width="7.293" height="36.258" transform="translate(313.394 258.52)" fill="#c6c6c6"></rect>
        <rect id="Rectangle_32" data-name="Rectangle 32" width="30.035" height="36.258" transform="translate(320.687 258.52)" fill="#5f8199"></rect>
        <rect id="Rectangle_33" data-name="Rectangle 33" width="30.035" height="9.613" transform="translate(320.687 258.52)" fill="#3b4f66"></rect>
        <rect id="Rectangle_34" data-name="Rectangle 34" width="30.035" height="9.613" transform="translate(320.687 340.329)" fill="#3b4f66"></rect>
        <path id="Tracé_145" data-name="Tracé 145" d="M683.664,554.146a.932.932,0,0,1-.932-.932V358.124a.932.932,0,1,1,1.863,0v195.09a.932.932,0,0,1-.932.932" transform="translate(-254.366 -133.079)" fill="#fff"></path>
        <path id="Tracé_146" data-name="Tracé 146" d="M755.015,532.372a.932.932,0,0,1-.932-.932V299.685a.932.932,0,0,1,1.863,0V531.441a.932.932,0,0,1-.932.932" transform="translate(-280.95 -111.307)" fill="#fff"></path>
        <path id="Tracé_147" data-name="Tracé 147" d="M826.367,566.768a.932.932,0,0,1-.932-.932V392.006a.932.932,0,0,1,1.864,0v173.83a.932.932,0,0,1-.932.932" transform="translate(-307.533 -145.703)" fill="#fff"></path>
        <path id="Tracé_148" data-name="Tracé 148" d="M763.447,542.8H657.487a.932.932,0,0,1,0-1.864h105.96a.932.932,0,1,1,0,1.864" transform="translate(-244.613 -201.536)" fill="#fff"></path>
        <path id="Tracé_149" data-name="Tracé 149" d="M763.447,473.853H657.487a.932.932,0,0,1,0-1.863h105.96a.932.932,0,1,1,0,1.863" transform="translate(-244.613 -175.85)" fill="#fff"></path>
        <path id="Tracé_150" data-name="Tracé 150" d="M442.5,263.228h3.628a38.215,38.215,0,0,0,30.243-14.854l7.17-9.281a5.158,5.158,0,0,0-4.082-8.311H466.93a11.458,11.458,0,0,0-9.068,4.453l-17.8,23.04a3.073,3.073,0,0,0,2.432,4.952" transform="translate(-163.714 -85.983)" fill="#5f8199"></path>
        <path id="Tracé_151" data-name="Tracé 151" d="M530.109,253.653h3.957A27.807,27.807,0,0,0,556,242.941l4.028-5.076a4.387,4.387,0,0,0-3.46-7.083H544.393a11.614,11.614,0,0,0-9.159,4.474l-8.7,11.073a4.536,4.536,0,0,0,3.578,7.325" transform="translate(-195.81 -85.983)" fill="#5f8199"></path>
        <path id="Tracé_152" data-name="Tracé 152" d="M607.586,247h1.389a24.756,24.756,0,0,0,19.11-9.019l.565-.687a3.984,3.984,0,0,0-3.076-6.516h-6.606a12.121,12.121,0,0,0-9.357,4.416l-4.83,5.865A3.633,3.633,0,0,0,607.586,247" transform="translate(-225.013 -85.983)" fill="#5f8199"></path>
        <path id="Tracé_153" data-name="Tracé 153" d="M399.13,328.693h1.185a29.76,29.76,0,0,0,23.549-11.564l.455-.637a3,3,0,0,0-2.378-4.842H410.6a9.5,9.5,0,0,0-7.52,3.692l-6.412,8.345a3.106,3.106,0,0,0,2.458,5" transform="translate(-147.545 -116.112)" fill="#5f8199"></path>
        <rect id="Rectangle_35" data-name="Rectangle 35" width="16.638" height="64.542" transform="translate(74.97 355.592)" fill="#8fa7b8"></rect>
        <path id="Tracé_154" data-name="Tracé 154" d="M149.067,497.25H70.785L3.42,584.456l2.448,7.214H84.149l67.365-87.206Z" transform="translate(-1.274 -185.261)" fill="#6c8ca6"></path>
        <path id="Tracé_155" data-name="Tracé 155" d="M149.067,497.25H70.785L3.42,584.456H81.7Z" transform="translate(-1.274 -185.261)" fill="#3b4f66"></path>
        <path id="Tracé_156" data-name="Tracé 156" d="M146.277,500.865l1.71-2.218,1.08-1.4h0l0,0H70.784l-2.794,3.618h0L38.5,539.042h0l-2.3,2.983L3.421,584.455H81.7l32.285-41.794h0l1.333-1.727,30.952-40.069Zm-74.671,0h33.719l-29.49,38.177H42.116Zm1.434,41.8-29.494,38.18H9.827l29.494-38.18Zm7.839,38.18H47.16l29.494-38.18h33.719Zm32.289-41.8H79.45l29.49-38.177h33.719Z" transform="translate(-1.275 -185.26)" fill="#8fa7b8"></path>
        <path id="Tracé_157" data-name="Tracé 157" d="M98.928,532.028h3.437a24.157,24.157,0,0,0,19.053-9.306l3.5-4.409a3.81,3.81,0,0,0-3.005-6.153H111.337a10.086,10.086,0,0,0-7.956,3.886l-7.561,9.619a3.94,3.94,0,0,0,3.108,6.363" transform="translate(-35.387 -190.816)" fill="#5f8199"></path>
        <path id="Tracé_158" data-name="Tracé 158" d="M162.393,526.256H163.6a21.508,21.508,0,0,0,16.6-7.837l.491-.6a3.462,3.462,0,0,0-2.673-5.663h-5.74A10.532,10.532,0,0,0,164.153,516l-4.2,5.1a3.156,3.156,0,0,0,2.436,5.163" transform="translate(-59.325 -190.816)" fill="#5f8199"></path>
        <rect id="Rectangle_36" data-name="Rectangle 36" width="16.638" height="64.542" transform="translate(170.492 355.592)" fill="#8fa7b8"></rect>
        <path id="Tracé_159" data-name="Tracé 159" d="M301.311,497.25H223.029l-67.364,87.206,2.447,7.214h78.282l67.365-87.206Z" transform="translate(-57.996 -185.261)" fill="#6c8ca6"></path>
        <path id="Tracé_160" data-name="Tracé 160" d="M301.311,497.25H223.029l-67.364,87.206h78.282Z" transform="translate(-57.996 -185.261)" fill="#3b4f66"></path>
        <path id="Tracé_161" data-name="Tracé 161" d="M298.521,500.865l1.7-2.2,1.09-1.412h0l0,0H223.028l-2.794,3.618h0l-29.49,38.177h0l-2.338,3.029-32.741,42.383h78.282l32.285-41.794h0l1.3-1.681,30.987-40.115Zm-74.67,0h33.719l-29.49,38.177H194.36Zm1.433,41.8-29.494,38.18H162.071l29.494-38.18Zm7.839,38.18H199.4l29.494-38.18h33.719Zm32.289-41.8H231.694l29.49-38.177H294.9Z" transform="translate(-57.996 -185.26)" fill="#8fa7b8"></path>
        <path id="Tracé_162" data-name="Tracé 162" d="M1011.335,238.068c1.257,3.736,5.591,7.476,7.714,8.79,3.156,1.954,8.4-3.1,6.568-6.247a24.52,24.52,0,0,1-2.414-5.661c-.464-1.922.219-6.642-.1-7.06-.237-.316-1.329-.23-1.79.482a11.571,11.571,0,0,0-.722,2.265c-.281.791-.685.308-.861-.046a17.329,17.329,0,0,1-1.516-5.64c-.206-1.751-1.535-1.779-2.739-1.171-5.715,2.884-5.441,10.439-4.145,14.288" transform="translate(-376.507 -83.241)" fill="#eb987a"></path>
        <path id="Tracé_163" data-name="Tracé 163" d="M1305.692,394.3c.38,4.548,2.385,6.541.917,6.541s-6.555-10.494-8.574-14.961c1.666-1.2,4.44-2.519,5.98-1.761,1.93.949,1.269,5.3,1.677,10.181" transform="translate(-483.611 -143.027)" fill="#5f8199"></path>
        <path id="Tracé_164" data-name="Tracé 164" d="M1305.8,614.987c.725,2.151.257,5.705.171,8.551-.082,2.689.228,4.483-.346,6.613-1.039,3.859-8.94,6.679-11.183,4.031-1.692-2,3.3-10.969.683-15.683-.578-1.04-5.466-9.18-8.027-12.6-3.234-4.311,4.932-9.041,7.594-4.888,2.593,4.046,3.118,6.511,5.3,8.475,1.946,1.751,4.349,1.168,5.807,5.5" transform="translate(-479.259 -223.323)" fill="#3b4f66"></path>
        <path id="Tracé_165" data-name="Tracé 165" d="M1227.875,450.968c.676,5.857,1.931,19.6,5.993,28.67,3.66,8.173,22.9,44.99,29.231,57.3-3.079,2.159-10.656,7.155-13.832,9.121-3.165-3.8-27.976-38.84-34.675-51.412-7.09-13.306-15.548-35.808-18.056-43.614-2.155-6.708-11.408-27.661-10.98-31.781,5.205-4.8,26.844-11.1,32.057-11.1,9.755,12.322,8.805,30.2,10.261,42.821" transform="translate(-441.699 -152.064)" fill="#5f8199"></path>
        <path id="Tracé_166" data-name="Tracé 166" d="M1228.815,525.781c-5.477-8.234-10.588-16.26-13.178-21.122-7.089-13.3-15.549-35.805-18.057-43.613-1.512-4.718-6.534-16.469-9.233-24.467,2.719-5.953,16.544,6.612,18.218,15.039,2,10.072,5.624,28.676,9.8,40.434,3.78,10.653,16.072,31.6,12.452,33.729" transform="translate(-442.744 -162.081)" fill="#3b4f66"></path>
        <path id="Tracé_167" data-name="Tracé 167" d="M1317.545,410.9c-1.337-3.477-5.713-6.744-7.844-7.85-3.167-1.645-8.218,3.541-6.331,6.415a21.843,21.843,0,0,1,2.528,5.232c.507,1.8-.048,6.351.273,6.729.242.285,1.319.127,1.756-.584a11.167,11.167,0,0,0,.656-2.212c.258-.773.668-.341.853-.015a15.541,15.541,0,0,1,1.639,5.275c.247,1.656,1.562,1.59,2.735.927,5.573-3.147,5.112-10.336,3.735-13.918" transform="translate(-485.446 -150.046)" fill="#eb987a"></path>
        <path id="Tracé_168" data-name="Tracé 168" d="M1164.32,658.341h-17.212c-5.3,0-3.379-2.455-.476-3.7,2.55-1.1,6.144-1.749,8.532-3.985,1.8-1.683,2.795-7.239,3.081-10.085.2-1.98,7.217-1.395,6.99.854-.348,3.456,1.525,11.284,1.208,14.436-.17,1.688-.537,2.485-2.124,2.485" transform="translate(-426.136 -238.208)" fill="#3b4f66"></path>
        <path id="Tracé_169" data-name="Tracé 169" d="M1203.034,408.147c8.411,22.895-6.246,32.248-10.223,35.1h-9.42c-2.155,18.832-6.286,41.5-6.513,50.018-.351,13.175-.263,53.966-.82,68.789h-17.649c-2-11.929-8.58-46.846-7.669-72.53.909-25.61-.948-55.755-.113-70.11,5.45-1.016,39.9-10.652,52.407-11.262" transform="translate(-428.608 -152.064)" fill="#5f8199"></path>
        <path id="Tracé_170" data-name="Tracé 170" d="M1175.813,273.56c-.664,6.868-10.83,11.038-16.251,11.038s-5.15-6.872-3.828-13.645c1.5-7.7,7.014-10.891,12.4-10.274,6.67.763,8.36,5.836,7.68,12.881" transform="translate(-430.294 -97.094)" fill="#eb987a"></path>
        <path id="Tracé_171" data-name="Tracé 171" d="M1178.034,294.972c4.025,2.734-17.307,9.8-17.195,5.8.1-3.59.476-7.217.906-12.38.441-5.3,15.906-12.213,15.734-7.591-.191,5.127-2.624,12.008.554,14.166" transform="translate(-432.495 -104.054)" fill="#eb987a"></path>
        <path id="Tracé_172" data-name="Tracé 172" d="M1178.6,269.306c0,6.195,0,11.628-5.918,11.628a7.082,7.082,0,0,1-5.207-1.914c-1.416-1.468-.214-5.612-.125-6.755.212-2.719-2.8-2.42-3.992.629-1.362-.239-1.046-2.712-1.051-3.814-.023-5.489-2.889-6.265-3.258-8.384-.6-3.436,5.392-4.985,9.229-4.758,8.019.474,10.321,7.174,10.321,13.369" transform="translate(-431.813 -95.347)" fill="#2d374d"></path>
        <path id="Tracé_173" data-name="Tracé 173" d="M1206.044,338.814c-3.292-4.864-14.9-20.694-21.287-27.875-6.035-6.791-8.968-10.293-19.865-16.053-5.7-3.014-15.935-5.858-25.667-7.9-6.035-1.268-10.463-2.672-14.374-2.556-6.084.181-8.055.755-13.712,2.97-4.812,1.884-15.107,1.6-21.594-.007-11.568-2.866-22.527-5.326-29.654-10.914-7.257-5.69-19.652-19.134-24.443-23.79-2.586-2.513-4.573-3.1-7.816-.9-3.578,2.43-5.976,8.289-2.432,12.668,3.7,4.565,16.619,19.342,23.595,25.952,6.594,6.249,12.038,9.034,23.387,13.841,4.383,1.857,8.511,3.687,12.448,5.082,4.288,1.52,6.86,5.5,7.475,10,2.261,16.564,2.2,44.74,9.775,48.555,16.277,8.2,54.357.077,62.548-10.5-1.873-12.913-6.3-29.316-10.253-42.816,6.809,1.911,12.732,4.019,17.053,8.05,6.743,6.29,19.225,21.984,23.6,27.034,2.361,2.725,4.291,3.481,7.71,1.564,3.773-2.115,6.664-7.747,3.507-12.413" transform="translate(-381.311 -93.301)" fill="#f6cd7d"></path>
        <path id="Tracé_174" data-name="Tracé 174" d="M1238.749,344.211c-4.218-2.076-8.1-3.379-10.72-3.5.781,2.3,1.576,4.822,2.363,7.505,6.809,1.909,12.731,4.017,17.053,8.047,2.319,2.162,5.317,5.439,8.433,9.011-.01-3.753-7.814-16.483-17.129-21.067" transform="translate(-457.528 -126.94)" fill="#dea364"></path>
        <path id="Tracé_175" data-name="Tracé 175" d="M666.567,53.64A53.64,53.64,0,1,1,612.927,0a53.64,53.64,0,0,1,53.64,53.64" transform="translate(-208.374)" fill="#88bfb1"></path>
        <path id="Tracé_176" data-name="Tracé 176" d="M634.943,56.793,648.79,24.906H630.542L617.388,64.662h19.3l-14.833,36.271,38.916-44.14Z" transform="translate(-230.021 -9.279)" fill="#fff"></path>
      </g>
    </g>
  </g>
</svg>
