<?xml version="1.0" encoding="UTF-8"?>
<svg xmlns="http://www.w3.org/2000/svg" width="741.053" height="603.329" viewBox="0 0 741.053 603.329">
  <g id="Groupe_172" data-name="Groupe 172" transform="translate(-1031.926 -4382.135)">
    <path id="Tracé_234" data-name="Tracé 234" d="M20.2,364.6C-17.876,251.487,1.455,84.908,173.4,15.083,285.017-30.243,338.358,35.318,396.675,96.351c48.229,50.475,118.182,77.325,192.9,72.947,50.487-2.958,125.205,13.117,144.657,127.472C764.355,473.834,599.537,648.444,279.28,592.8,147.138,569.843,59.9,482.553,20.2,364.6" transform="translate(1035.234 4382.135)" fill="#8fa7b8" opacity="0.15"></path>
    <path id="Tracé_195" data-name="Tracé 195" d="M115.449,515.049s-31.97,11.444-32.082-22.24c-.073-21.911,5.47-29.251,5.47-29.251L119.314,483.8Z" transform="translate(1028.856 4211.946)" fill="#2d374d" fill-rule="evenodd"></path>
    <path id="Tracé_196" data-name="Tracé 196" d="M74,471.7s-10.891,46.07,14.637,45.256c18.407-.588,4.39-31.686,4.39-31.686Z" transform="translate(1024.03 4215.313)" fill="#2d374d" fill-rule="evenodd"></path>
    <path id="Tracé_198" data-name="Tracé 198" d="M174.7,571.717l-33.58-49.236c-9.629-15.495-21.608-18.63-31.669-6.424-3.963,4.809-3.59,13.064.837,18.537l37.4,46.231c18.8,23.245,33.021,13.427,39.452,3.876Z" transform="translate(1038.507 4230.561)" fill="#eb987a" fill-rule="evenodd"></path>
    <path id="Tracé_199" data-name="Tracé 199" d="M147.082,570.108s13.646,26.095,23.776,13.678l39.226-74.176-15.5-.247-36,45.5Z" transform="translate(1055.202 4230.887)" fill="#eb987a" fill-rule="evenodd"></path>
    <path id="Tracé_200" data-name="Tracé 200" d="M142.489,501.048l-32.137-3.216a.509.509,0,0,1-.161-.045l-5.073-2.373a.461.461,0,0,0-.286-.04l-9.311,1.73-.047.011-27.983,8.853a.388.388,0,0,0-.122.065c-10.3,8.047-9.846,10.159-10.939,26.458a.439.439,0,0,0,.028.184L72.581,574.2c.02.048-13.553-1.053-13.551-1,.366,34.067,17.216,63.074,19.421,102.734a.513.513,0,0,0,.479.468c33.866,1.117,91.455-11.034,107.161-23.671,9.685-7.791-1.8-27.224-4.448-40.613-11.533-58.256-14.731-81.822-39.034-110.869-.089-.106.013-.187-.12-.2" transform="translate(1017.718 4225.1)" fill="#f6cd7d" fill-rule="evenodd"></path>
    <path id="Tracé_201" data-name="Tracé 201" d="M62.955,637.163l12.224-69.609c1.667-17.728-10.546-30.949-25.665-27.785-5.956,1.247-4.844,9.74-4.629,16.631l-2.233,68.116Z" transform="translate(1012.021 4243.266)" fill="#eb987a" fill-rule="evenodd"></path>
    <path id="Tracé_202" data-name="Tracé 202" d="M186.008,522.413l14.3-1.214a11.676,11.676,0,0,0,7.494-3.6l8-8.433a5.993,5.993,0,0,0-1.959-9.531L195.98,502.19a17.6,17.6,0,0,0-10.652,6.122l-4.84,5.614Z" transform="translate(1069.016 4226.863)" fill="#eb987a"></path>
    <path id="Tracé_203" data-name="Tracé 203" d="M81.839,535.051l-2.373,54.705-39.849-1.832c0-26.536,12.256-59.37,27.532-78.627,3.8-4.788,16.626-9.715,22.151-9.856,10.393-.264-7.46,35.61-7.46,35.61" transform="translate(1010.765 4226.783)" fill="#f6cd7d" fill-rule="evenodd"></path>
    <path id="Tracé_204" data-name="Tracé 204" d="M120.906,499.386c-.739.657,10.82-1.739,25.392,27.869,13.278,26.979,19.928,32.86,19.928,32.86l-42.6,22.5-15-65.172Z" transform="translate(1039.301 4226.762)" fill="#f6cd7d" fill-rule="evenodd"></path>
    <path id="Tracé_205" data-name="Tracé 205" d="M51.848,582.215c7.34-3.464,15.417-4.978,16.161,4.576L57.142,671.28,40.717,676.9l2.6-70.156c2.109-7.976,1.255-21.092,8.532-24.527" transform="translate(1011.221 4259.91)" fill="#eb987a" fill-rule="evenodd"></path>
    <path id="Tracé_206" data-name="Tracé 206" d="M59.821,654.989l-1.063,1.193c-2.378,1.607-11.175,1.641-18.811,1.941l-10.138.656c-3.975-.54-3.877-3.654-1.985-7.3l15.5-9.23a17.389,17.389,0,0,1,12.053-1.919l8.224,1.586.112,1.813a15.5,15.5,0,0,1-3.9,11.264" transform="translate(1005.366 4284.904)" fill="#eb987a"></path>
    <path id="Tracé_207" data-name="Tracé 207" d="M135.392,549.969c.442-1.385-8.748-22.914-8.748-22.914" transform="translate(1046.751 4238.202)" fill="none" stroke="#dea364" stroke-linecap="round" stroke-linejoin="round" stroke-width="1.457"></path>
    <line id="Ligne_5" data-name="Ligne 5" y1="27.227" x2="3.108" transform="translate(1087.303 4773.862)" fill="none" stroke="#dea364" stroke-linecap="round" stroke-linejoin="round" stroke-width="1.457"></line>
    <path id="Tracé_208" data-name="Tracé 208" d="M110.248,498.763s9.167,26.137-5.076,29.165-27.666-27.5-27.666-27.5,6.831-5.207,7.285-5.231,25.457,3.566,25.457,3.566" transform="translate(1026.433 4225.029)" fill="#eb987a" fill-rule="evenodd"></path>
    <path id="Tracé_209" data-name="Tracé 209" d="M186.738,571.993s15.189-.956,36.785,42.228c11.832,23.663,55.9,72.438,55.9,72.438l12.191-6.908-53.044-106.54c-4.608-8.677-20.238-16.766-29.732-17.947L196.1,563.715Z" transform="translate(1071.6 4249.867)" fill="#eb987a" fill-rule="evenodd"></path>
    <path id="Tracé_210" data-name="Tracé 210" d="M314.746,661.979l-30.208,10.155s-31.908-32.177-40.361-58.893L175.386,666.3l-58.954-44.487s100.881-64.542,106.93-68.989,27.607-9.957,39.346,6.345,52.038,102.808,52.038,102.808" transform="translate(1042.529 4246.952)" fill="#3b4f66" fill-rule="evenodd"></path>
    <path id="Tracé_211" data-name="Tracé 211" d="M71.494,617.266s-14.935,68.7,57.518,67.034,97.845-75.991,97.845-75.991l-20.1,16.207L191.4,618.036l-35.292-30.425Z" transform="translate(1023.421 4263.242)" fill="#6c8ca6"></path>
    <path id="Tracé_212" data-name="Tracé 212" d="M266.292,642.079l12.762,8.953c2.639,2.237,16.729,6.238,16.729,6.238,1.5,2.847-1.155,4.477-3.439,4.947l-41.092.718s-9.555-1.606-1.849-20.2c7.6,3.012,15.16,5.107,16.888-.652" transform="translate(1096.27 4285.765)" fill="#3b4f66" fill-rule="evenodd"></path>
    <path id="Tracé_213" data-name="Tracé 213" d="M142.248,573.828s15.189-.956,36.785,42.228c11.832,23.663,55.9,72.438,55.9,72.438l12.191-6.908-53.044-106.54c-4.608-8.677-20.238-16.766-29.732-17.947l-12.733,8.451Z" transform="translate(1053.203 4250.626)" fill="#eb987a" fill-rule="evenodd"></path>
    <path id="Tracé_214" data-name="Tracé 214" d="M268.469,663.814l-30.208,10.155s-31.908-32.177-40.361-58.893l-68.791,53.061L76.263,638.7s94.775-79.6,100.822-84.042,27.607-9.957,39.346,6.345,52.038,102.808,52.038,102.808" transform="translate(1025.919 4247.711)" fill="#6c8ca6" fill-rule="evenodd"></path>
    <path id="Tracé_215" data-name="Tracé 215" d="M221.8,643.914l12.762,8.953c2.639,2.238,16.729,6.238,16.729,6.238,1.5,2.847-1.155,4.477-3.439,4.947l-41.092.718s-9.555-1.606-1.849-20.2c7.6,3.012,15.16,5.107,16.888-.652" transform="translate(1077.874 4286.523)" fill="#3b4f66" fill-rule="evenodd"></path>
    <path id="Tracé_216" data-name="Tracé 216" d="M105.848,462.467a59.76,59.76,0,0,1,19.423,31.664c1.3,5.4-.276,11.589-2.852,17.266-2.144,4.727-11.338,6.528-18.483,9.162,0,0,9.6-46.651-9.3-48.773,0,0-6.16.037-8.644-5.737s9.6-10.836,19.853-3.582" transform="translate(1029.807 4210.012)" fill="#2d374d" fill-rule="evenodd"></path>
    <path id="Tracé_217" data-name="Tracé 217" d="M102.854,488.537l-4.92,24.886a8.456,8.456,0,0,1-5.623,6.4,8.318,8.318,0,0,1-8.273-1.809l-2.116-1.963a10.933,10.933,0,0,1-2.992-11.216c3.162-10.279,8.919-29,8.919-29Z" transform="translate(1026.822 4217.022)" fill="#eb987a" fill-rule="evenodd"></path>
    <path id="Tracé_218" data-name="Tracé 218" d="M97.616,490.306,95.38,498.35l-6.306-8.578Z" transform="translate(1031.216 4222.786)" fill="#2d374d" fill-rule="evenodd"></path>
    <path id="Tracé_219" data-name="Tracé 219" d="M78.872,479.434a7.359,7.359,0,0,1,4.212-9.485l13.086-4.991c3.76-1.433,7.405.755,9.4,4.291,2.358,4.174,5.149,13.639,6.348,20.75.677,4.011-.944,8.564-4.7,10-4.013,1.529-17.5,2.247-21.393-4.57-2.966-5.189-4.841-10.4-6.952-16" transform="translate(1026.799 4212.342)" fill="#eb987a" fill-rule="evenodd"></path>
    <path id="Tracé_220" data-name="Tracé 220" d="M75.845,490.523c-3.17-4.97-3.442-13.137-1.416-18.069,4.3-10.468,16.207-15.794,29.924-8.342,0,0,1.16,13.172-11.018,30.964-5.542,8.1-9.736,6.477-9.554,15.263.057,2.693-2.532-11.789-4.036-14.023Z" transform="translate(1024.626 4210.737)" fill="#2d374d" fill-rule="evenodd"></path>
    <path id="Tracé_221" data-name="Tracé 221" d="M88.2,484.979c2.163,2.536,5.593,3.131,7.663,1.332s2-5.315-.167-7.851-5.593-3.132-7.663-1.331-2,5.315.167,7.851" transform="translate(1030.163 4217.128)" fill="#eb987a" fill-rule="evenodd"></path>
    <path id="Tracé_222" data-name="Tracé 222" d="M99.893,472.125a80.9,80.9,0,0,0,7.1,7.182c2.132,1.978-1.946,7.042-4.626,6.275s-6.663-9-6.663-9Z" transform="translate(1033.957 4215.489)" fill="#eb987a" fill-rule="evenodd"></path>
    <path id="Tracé_223" data-name="Tracé 223" d="M101.421,482.815l-3.554.768s.91,5.034,3.736,3.285c.6-.372-.182-4.052-.182-4.052" transform="translate(1034.852 4219.909)" fill="#fff" fill-rule="evenodd"></path>
    <path id="Tracé_224" data-name="Tracé 224" d="M94,483.219s-7.54,10.752,8.063,27.4c0,0-22.485,9.331-26.278-9.808C73.027,486.911,94,483.219,94,483.219" transform="translate(1025.616 4220.076)" fill="#2d374d" fill-rule="evenodd"></path>
    <line id="Ligne_8" data-name="Ligne 8" x2="7.865" y2="1.565" transform="translate(1118.748 4672.437)" fill="none" stroke="#2d374d" stroke-linecap="round" stroke-width="0.862"></line>
    <g id="Groupe_110" data-name="Groupe 110" transform="translate(35.575 197.046)">
      <path id="Tracé_179" data-name="Tracé 179" d="M483.664,330.716H228.991a8.927,8.927,0,0,1,0-17.854H483.664a8.927,8.927,0,1,1,0,17.854" transform="translate(1081.075 4072.143)" fill="#5f8199"></path>
      <path id="Tracé_180" data-name="Tracé 180" d="M483.664,507.032H228.991a8.927,8.927,0,1,1,0-17.854H483.664a8.927,8.927,0,1,1,0,17.854" transform="translate(1081.075 4051.037)" fill="#5f8199"></path>
      <path id="Tracé_182" data-name="Tracé 182" d="M265.184,513.321h0a21.073,21.073,0,0,1-21.012-21.012v-199.9a21.012,21.012,0,1,1,42.023,0v199.9a21.073,21.073,0,0,1-21.012,21.012" transform="translate(1078.189 4077.108)" fill="#fff"></path>
      <path id="Tracé_183" data-name="Tracé 183" d="M334.07,513.321h0a21.073,21.073,0,0,1-21.012-21.012v-199.9a21.012,21.012,0,0,1,42.023,0v199.9a21.073,21.073,0,0,1-21.012,21.012" transform="translate(1069.942 4077.108)" fill="#fff"></path>
      <path id="Tracé_184" data-name="Tracé 184" d="M405.352,513.321h0A21.073,21.073,0,0,1,384.34,492.31v-199.9a21.012,21.012,0,0,1,42.023,0v199.9a21.073,21.073,0,0,1-21.012,21.012" transform="translate(1061.409 4077.108)" fill="#fff"></path>
      <path id="Tracé_185" data-name="Tracé 185" d="M475.936,513.321h0a21.073,21.073,0,0,1-21.012-21.012v-199.9a21.012,21.012,0,1,1,42.023,0v199.9a21.073,21.073,0,0,1-21.012,21.012" transform="translate(1052.959 4077.108)" fill="#fff"></path>
      <path id="Tracé_186" data-name="Tracé 186" d="M221.05,513.709h0a9.088,9.088,0,0,1-9.061-9.061v-15.19a9.061,9.061,0,0,1,18.122,0v15.19a9.088,9.088,0,0,1-9.061,9.061" transform="translate(1082.041 4052.088)" fill="#5f8199"></path>
      <path id="Tracé_187" data-name="Tracé 187" d="M221.05,336.827h0a9.088,9.088,0,0,1-9.061-9.061v-15.19a9.061,9.061,0,1,1,18.122,0v15.19a9.088,9.088,0,0,1-9.061,9.061" transform="translate(1082.041 4073.262)" fill="#5f8199"></path>
      <path id="Tracé_188" data-name="Tracé 188" d="M524.944,513.709h0a9.088,9.088,0,0,1-9.061-9.061v-15.19a9.061,9.061,0,0,1,18.122,0v15.19a9.088,9.088,0,0,1-9.061,9.061" transform="translate(1045.662 4052.088)" fill="#5f8199"></path>
      <path id="Tracé_189" data-name="Tracé 189" d="M524.944,338.142h0a9.088,9.088,0,0,1-9.061-9.061v-15.19a9.061,9.061,0,1,1,18.122,0v15.19a9.088,9.088,0,0,1-9.061,9.061" transform="translate(1045.662 4073.105)" fill="#5f8199"></path>
      <path id="Tracé_191" data-name="Tracé 191" d="M259.595,169.342c-.5,20.152,19.648,16.122,19.648,33.755s-20.674,10.579-19.658,41.815" transform="translate(1076.348 4089.324)" fill="none" stroke="#c6c6c6" stroke-linecap="round" stroke-linejoin="round" stroke-width="1.571"></path>
      <path id="Tracé_192" data-name="Tracé 192" d="M325.787,169.342c-.5,20.152,19.648,16.122,19.648,33.755s-20.675,10.579-19.658,41.815" transform="translate(1068.424 4089.324)" fill="none" stroke="#c6c6c6" stroke-linecap="round" stroke-linejoin="round" stroke-width="1.571"></path>
      <path id="Tracé_193" data-name="Tracé 193" d="M391.978,169.342c-.5,20.152,19.648,16.122,19.648,33.755s-20.674,10.579-19.658,41.815" transform="translate(1060.5 4089.324)" fill="none" stroke="#c6c6c6" stroke-linecap="round" stroke-linejoin="round" stroke-width="1.571"></path>
      <path id="Tracé_194" data-name="Tracé 194" d="M457.9,169.342c-.5,20.152,19.648,16.122,19.648,33.755s-20.674,10.579-19.658,41.815" transform="translate(1052.608 4089.324)" fill="none" stroke="#c6c6c6" stroke-linecap="round" stroke-linejoin="round" stroke-width="1.571"></path>
      <path id="Tracé_225" data-name="Tracé 225" d="M383.416,452.225H348.128a17.441,17.441,0,0,1-17.39-17.389V369.113a17.441,17.441,0,0,1,17.39-17.389h35.288a17.44,17.44,0,0,1,17.389,17.389v65.722a17.44,17.44,0,0,1-17.389,17.389" transform="translate(1067.826 4067.491)" fill="#f6cd7d"></path>
      <rect id="Rectangle_39" data-name="Rectangle 39" width="48.931" height="25.093" transform="translate(1409.133 4432.789)" fill="#dea364"></rect>
      <path id="Tracé_226" data-name="Tracé 226" d="M366.892,411.486a4.11,4.11,0,1,1-4.11-4.11,4.11,4.11,0,0,1,4.11,4.11" transform="translate(1064.482 4060.829)" fill="#3b4f66"></path>
      <path id="Tracé_227" data-name="Tracé 227" d="M381.283,411.486a4.11,4.11,0,1,1-4.11-4.11,4.11,4.11,0,0,1,4.11,4.11" transform="translate(1062.759 4060.829)" fill="#3b4f66"></path>
      <path id="Tracé_228" data-name="Tracé 228" d="M352.125,387.889a2.75,2.75,0,0,1-2.454-1.4,7.585,7.585,0,0,1-.879-4.016,7.407,7.407,0,0,1,.879-3.982,2.874,2.874,0,0,1,4.893,0,7.407,7.407,0,0,1,.878,3.982,7.586,7.586,0,0,1-.878,4.016,2.737,2.737,0,0,1-2.438,1.4m0-1.073a1.419,1.419,0,0,0,.82-.252,2.03,2.03,0,0,0,.634-.781,4.908,4.908,0,0,0,.415-1.349,11.405,11.405,0,0,0,.146-1.96,11.256,11.256,0,0,0-.146-1.95,4.658,4.658,0,0,0-.415-1.325,1.983,1.983,0,0,0-.634-.756,1.451,1.451,0,0,0-.82-.244,1.49,1.49,0,0,0-.829.244,1.96,1.96,0,0,0-.642.756,4.66,4.66,0,0,0-.415,1.325,11.164,11.164,0,0,0-.147,1.95,7.281,7.281,0,0,0,.562,3.308,1.665,1.665,0,0,0,1.471,1.033" transform="translate(1065.665 4064.45)" fill="#fff"></path>
      <path id="Tracé_229" data-name="Tracé 229" d="M361.3,387.889a2.752,2.752,0,0,1-2.455-1.4,7.6,7.6,0,0,1-.878-4.016,7.416,7.416,0,0,1,.878-3.982,2.875,2.875,0,0,1,4.894,0,7.407,7.407,0,0,1,.878,3.982,7.586,7.586,0,0,1-.878,4.016,2.737,2.737,0,0,1-2.438,1.4m0-1.073a1.419,1.419,0,0,0,.82-.252,2.029,2.029,0,0,0,.634-.781,4.906,4.906,0,0,0,.416-1.349,11.414,11.414,0,0,0,.145-1.96,11.265,11.265,0,0,0-.145-1.95,4.656,4.656,0,0,0-.416-1.325,1.983,1.983,0,0,0-.634-.756,1.451,1.451,0,0,0-.82-.244,1.49,1.49,0,0,0-.829.244,1.96,1.96,0,0,0-.642.756,4.66,4.66,0,0,0-.415,1.325,11.168,11.168,0,0,0-.147,1.95,7.281,7.281,0,0,0,.562,3.308,1.664,1.664,0,0,0,1.471,1.033" transform="translate(1064.566 4064.45)" fill="#fff"></path>
      <path id="Tracé_230" data-name="Tracé 230" d="M367.793,386.614h2.373v-7.64h-1.886v-.861a8.119,8.119,0,0,0,1.243-.318,4.953,4.953,0,0,0,.952-.446H371.5v9.265h2.145v1.106h-5.851Z" transform="translate(1063.39 4064.424)" fill="#fff"></path>
      <path id="Tracé_231" data-name="Tracé 231" d="M379.657,387.889a2.753,2.753,0,0,1-2.455-1.4,7.6,7.6,0,0,1-.878-4.016,7.416,7.416,0,0,1,.878-3.982,2.875,2.875,0,0,1,4.894,0,7.407,7.407,0,0,1,.878,3.982,7.586,7.586,0,0,1-.878,4.016,2.737,2.737,0,0,1-2.438,1.4m0-1.073a1.419,1.419,0,0,0,.82-.252,2.028,2.028,0,0,0,.634-.781,4.907,4.907,0,0,0,.416-1.349,11.412,11.412,0,0,0,.146-1.96,11.263,11.263,0,0,0-.146-1.95,4.657,4.657,0,0,0-.416-1.325,1.982,1.982,0,0,0-.634-.756,1.451,1.451,0,0,0-.82-.244,1.49,1.49,0,0,0-.829.244,1.96,1.96,0,0,0-.642.756,4.662,4.662,0,0,0-.415,1.325,11.171,11.171,0,0,0-.147,1.95,7.281,7.281,0,0,0,.562,3.308,1.664,1.664,0,0,0,1.471,1.033" transform="translate(1062.369 4064.45)" fill="#fff"></path>
      <path id="Tracé_232" data-name="Tracé 232" d="M385.418,386.9q1.17-1.17,2.08-2.113a20.621,20.621,0,0,0,1.528-1.747,8.665,8.665,0,0,0,.943-1.479,3,3,0,0,0,.326-1.309,2.171,2.171,0,0,0-.488-1.463,1.843,1.843,0,0,0-1.48-.569,2.134,2.134,0,0,0-1.2.365,5.008,5.008,0,0,0-1.008.886l-.764-.764a5.959,5.959,0,0,1,1.382-1.145,3.392,3.392,0,0,1,1.755-.431,3.059,3.059,0,0,1,2.276.838,3.013,3.013,0,0,1,.829,2.218,3.711,3.711,0,0,1-.317,1.471,8.342,8.342,0,0,1-.878,1.528,18.4,18.4,0,0,1-1.333,1.643q-.772.852-1.7,1.812l.878-.065c.3-.021.591-.033.861-.033h3.008v1.154h-6.7Z" transform="translate(1061.288 4064.45)" fill="#fff"></path>
    </g>
  </g>
</svg>
