<?xml version="1.0" encoding="UTF-8"?>
<svg xmlns="http://www.w3.org/2000/svg" xmlns:xlink="http://www.w3.org/1999/xlink" id="Groupe_123" data-name="Groupe 123" width="149.838" height="60" viewBox="0 0 149.838 60">
  <defs>
    <clipPath id="clip-path">
      <rect id="Rectangle_66" data-name="Rectangle 66" width="149.838" height="60" fill="#fff"></rect>
    </clipPath>
  </defs>
  <g id="Groupe_78" data-name="Groupe 78" clip-path="url(#clip-path)">
    <path id="Tracé_274" data-name="Tracé 274" d="M35.7.571V10.782a8.9,8.9,0,0,1-1.5,5.439,5.331,5.331,0,0,1-4.57,2.011,5.336,5.336,0,0,1-4.558-2.011,8.843,8.843,0,0,1-1.44-5.439l0-1.549V7.783A7.941,7.941,0,0,0,22.492,3.32,6.824,6.824,0,0,0,19.589.8,8.686,8.686,0,0,0,15.971,0a7.414,7.414,0,0,0-3.3.738A8.565,8.565,0,0,0,10.2,2.487a4,4,0,0,0-1.13,1.845V.571H6.355V20.112H9.068V9.187a6.722,6.722,0,0,1,.94-3.523,7.194,7.194,0,0,1,2.4-2.475,5.7,5.7,0,0,1,3.035-.9,5.455,5.455,0,0,1,3.9,1.44q1.523,1.44,1.524,4.7v.807l0,2.025a11.1,11.1,0,0,0,1.023,4.867,7.851,7.851,0,0,0,2.975,3.344,8.841,8.841,0,0,0,4.76,1.214,8.891,8.891,0,0,0,4.784-1.214,7.851,7.851,0,0,0,2.975-3.344,11.1,11.1,0,0,0,1.023-4.867V.571Z" transform="translate(-4.271 0)" fill="#fff"></path>
    <path id="Tracé_275" data-name="Tracé 275" d="M144.47,20.112V16.018a5.23,5.23,0,0,1-1.106,1.761,8.791,8.791,0,0,1-2.595,2.011,8.131,8.131,0,0,1-3.915.892,9.922,9.922,0,0,1-4.868-1.226,9.226,9.226,0,0,1-3.57-3.546,10.9,10.9,0,0,1-1.345-5.558A10.9,10.9,0,0,1,128.417,4.8a9.319,9.319,0,0,1,3.57-3.558A9.851,9.851,0,0,1,136.855,0a8.435,8.435,0,0,1,3.9.845,8.776,8.776,0,0,1,2.607,1.94,4.109,4.109,0,0,1,1.083,1.833V.572h2.666V20.112Zm-14.709-9.758a8.126,8.126,0,0,0,1.071,4.26,7.447,7.447,0,0,0,2.773,2.737,7.227,7.227,0,0,0,3.582.952,7,7,0,0,0,3.689-.976,6.888,6.888,0,0,0,2.559-2.761,8.926,8.926,0,0,0,.94-4.213,8.925,8.925,0,0,0-.94-4.213,6.822,6.822,0,0,0-6.248-3.761,7.159,7.159,0,0,0-3.582.964,7.544,7.544,0,0,0-2.773,2.749,8.128,8.128,0,0,0-1.071,4.261" transform="translate(-85.399)" fill="#fff"></path>
    <path id="Tracé_276" data-name="Tracé 276" d="M224.534,0a8.689,8.689,0,0,1,3.618.8,6.823,6.823,0,0,1,2.9,2.523A7.944,7.944,0,0,1,232.2,7.783V20.112h-2.761V8.426q0-3.261-1.523-4.7a5.456,5.456,0,0,0-3.9-1.44,5.7,5.7,0,0,0-3.034.9,7.191,7.191,0,0,0-2.4,2.475,6.719,6.719,0,0,0-.94,3.523V20.112h-2.713V.571h2.713V4.332a4,4,0,0,1,1.13-1.844,8.558,8.558,0,0,1,2.475-1.75,7.415,7.415,0,0,1,3.3-.738" transform="translate(-144.437)" fill="#fff"></path>
    <path id="Tracé_277" data-name="Tracé 277" d="M300.509,18.3a7.317,7.317,0,0,0,3.356-.654,9.287,9.287,0,0,0,1.547-.917l1.428,2.095a11.3,11.3,0,0,1-1.07.607,11.858,11.858,0,0,1-2.274.857,11.628,11.628,0,0,1-3.153.393,9.558,9.558,0,0,1-4.546-1.166,9.383,9.383,0,0,1-3.606-3.475,10.734,10.734,0,0,1-1.416-5.712,10.722,10.722,0,0,1,1.416-5.724A9.322,9.322,0,0,1,295.8,1.154,9.631,9.631,0,0,1,300.342,0a10.117,10.117,0,0,1,3.094.429,10.27,10.27,0,0,1,2.19.952,5.8,5.8,0,0,1,1.071.762l-1.4,2.071q-.214-.19-.8-.631a6.473,6.473,0,0,0-1.583-.821,6.931,6.931,0,0,0-5.736.547,7.358,7.358,0,0,0-2.7,2.7,8.286,8.286,0,0,0-1.059,4.32,8.35,8.35,0,0,0,1.059,4.332,7.334,7.334,0,0,0,2.7,2.713,6.7,6.7,0,0,0,3.332.928" transform="translate(-195.416)" fill="#fff"></path>
    <path id="Tracé_278" data-name="Tracé 278" d="M357.393,10.664a9.574,9.574,0,0,0,.822,3.832,6.715,6.715,0,0,0,2.416,2.88,7.106,7.106,0,0,0,4.07,1.1,7.613,7.613,0,0,0,3.344-.655,7.059,7.059,0,0,0,2.142-1.523,6.809,6.809,0,0,0,1.13-1.559l1.69,1.666a10.317,10.317,0,0,1-2.035,2.321,7.988,7.988,0,0,1-2.714,1.464,12.177,12.177,0,0,1-3.7.5,9.752,9.752,0,0,1-5.32-1.392,9.008,9.008,0,0,1-3.356-3.8,12.323,12.323,0,0,1-1.154-5.4,11.339,11.339,0,0,1,1.142-5.141,8.8,8.8,0,0,1,3.3-3.618A9.7,9.7,0,0,1,364.367,0a9.186,9.186,0,0,1,4.8,1.214,8.364,8.364,0,0,1,3.166,3.368,10.628,10.628,0,0,1,1.131,5.01c0,.143,0,.325-.012.547s-.02.4-.036.523ZM370.746,8.4a7.4,7.4,0,0,0-.631-2.726,5.861,5.861,0,0,0-1.976-2.451,6.185,6.185,0,0,0-3.749-1.012,6.944,6.944,0,0,0-3.939.988,5.941,5.941,0,0,0-2.13,2.416,8.769,8.769,0,0,0-.809,2.785Z" transform="translate(-238.397 -0.001)" fill="#fff"></path>
    <path id="Tracé_279" data-name="Tracé 279" d="M449.9,28.032a1.709,1.709,0,1,1-1.709-1.709,1.709,1.709,0,0,1,1.709,1.709" transform="translate(-300.058 -17.691)" fill="#fff"></path>
    <path id="Tracé_280" data-name="Tracé 280" d="M17.275,110.471v-4.065a5.2,5.2,0,0,1-1.1,1.749,8.721,8.721,0,0,1-2.576,2,8.075,8.075,0,0,1-3.888.886,9.852,9.852,0,0,1-4.833-1.217A9.167,9.167,0,0,1,1.335,106.3a12.071,12.071,0,0,1,0-11.036A9.253,9.253,0,0,1,4.88,91.73,9.781,9.781,0,0,1,9.713,90.5a8.375,8.375,0,0,1,3.876.839,8.7,8.7,0,0,1,2.588,1.926,4.072,4.072,0,0,1,1.075,1.819V91.068H19.9v19.4Zm-7,10.351a15.213,15.213,0,0,1-4.207-.52,9.975,9.975,0,0,1-3.013-1.383,7.245,7.245,0,0,1-1.879-1.855l1.985-1.749a10.242,10.242,0,0,0,1.182,1.323A6.273,6.273,0,0,0,6.5,117.9a10.641,10.641,0,0,0,3.71.532,6.9,6.9,0,0,0,3.888-1.04,6.583,6.583,0,0,0,2.375-2.765,8.9,8.9,0,0,0,.8-3.8v-.685H19.9v.9a10.382,10.382,0,0,1-1.288,5.353,8.457,8.457,0,0,1-3.474,3.308,10.48,10.48,0,0,1-4.857,1.123M2.67,100.781a8.071,8.071,0,0,0,1.064,4.23,7.4,7.4,0,0,0,2.753,2.718,7.178,7.178,0,0,0,3.557.945,6.953,6.953,0,0,0,3.663-.969,6.847,6.847,0,0,0,2.541-2.742,9.84,9.84,0,0,0,0-8.366,6.773,6.773,0,0,0-6.2-3.734,7.11,7.11,0,0,0-3.557.957,7.492,7.492,0,0,0-2.753,2.729,8.07,8.07,0,0,0-1.064,4.23" transform="translate(0 -60.822)" fill="#fff"></path>
    <path id="Tracé_281" data-name="Tracé 281" d="M87.22,110.471H84.573v-19.4H87.22v3.5H87.1a3.719,3.719,0,0,1,.863-1.572,7.4,7.4,0,0,1,2.091-1.725,6.108,6.108,0,0,1,3.12-.768,7.172,7.172,0,0,1,2.351.342,4.012,4.012,0,0,1,1.359.7L95.7,93.833a3.3,3.3,0,0,0-1.146-.614,5.9,5.9,0,0,0-2.02-.307A4.056,4.056,0,0,0,89.713,94a7.485,7.485,0,0,0-1.843,2.588,6.994,6.994,0,0,0-.65,2.753Z" transform="translate(-56.838 -60.822)" fill="#fff"></path>
    <path id="Tracé_282" data-name="Tracé 282" d="M140.6,111.038A9.683,9.683,0,0,1,131.893,106a10.462,10.462,0,0,1-1.288-5.176,10.662,10.662,0,0,1,1.288-5.211,9.845,9.845,0,0,1,3.545-3.734A9.682,9.682,0,0,1,140.6,90.5a9.562,9.562,0,0,1,5.14,1.382,9.814,9.814,0,0,1,3.509,3.734,10.744,10.744,0,0,1,1.276,5.211A10.542,10.542,0,0,1,149.251,106a9.572,9.572,0,0,1-8.649,5.033m0-2.434a7.149,7.149,0,0,0,3.84-1.016,6.934,6.934,0,0,0,2.552-2.789,8.568,8.568,0,0,0,.91-3.97,8.694,8.694,0,0,0-.91-4.006,7.173,7.173,0,0,0-2.552-2.836,6.971,6.971,0,0,0-3.84-1.051,7.071,7.071,0,0,0-3.876,1.051,7.223,7.223,0,0,0-2.576,2.836,8.6,8.6,0,0,0-.922,4.006,8.478,8.478,0,0,0,.922,3.97,6.984,6.984,0,0,0,2.576,2.789A7.252,7.252,0,0,0,140.6,108.6" transform="translate(-87.774 -60.822)" fill="#fff"></path>
    <path id="Tracé_283" data-name="Tracé 283" d="M213.552,102.369a8.786,8.786,0,0,0,1.5,5.4,6.14,6.14,0,0,0,9.063,0,8.834,8.834,0,0,0,1.489-5.4V92.231H228.3v10.611a11.029,11.029,0,0,1-1.016,4.833,7.8,7.8,0,0,1-2.954,3.32,9.919,9.919,0,0,1-9.477,0,7.8,7.8,0,0,1-2.954-3.32,11.025,11.025,0,0,1-1.016-4.833V92.231h2.67Z" transform="translate(-141.725 -61.984)" fill="#fff"></path>
    <path id="Tracé_284" data-name="Tracé 284" d="M290.249,120.3h-2.694V91.068h2.765v4.018a4.075,4.075,0,0,1,1.146-1.855,9.158,9.158,0,0,1,6.676-2.729A9.311,9.311,0,0,1,302.9,91.73a8.892,8.892,0,0,1,3.367,3.533,12.729,12.729,0,0,1-.012,11.036,8.855,8.855,0,0,1-3.391,3.521,9.44,9.44,0,0,1-4.773,1.217,9.044,9.044,0,0,1-6.747-2.859,4.268,4.268,0,0,1-1.1-1.773Zm14.581-19.521a8.525,8.525,0,0,0-.993-4.23,7.2,7.2,0,0,0-2.587-2.729,6.608,6.608,0,0,0-3.462-.957,7.393,7.393,0,0,0-3.758.981,7.215,7.215,0,0,0-2.706,2.753,9.215,9.215,0,0,0,0,8.366,7.13,7.13,0,0,0,2.706,2.742,7.459,7.459,0,0,0,3.758.969,6.671,6.671,0,0,0,3.462-.945,7.111,7.111,0,0,0,2.587-2.718,8.525,8.525,0,0,0,.993-4.23" transform="translate(-193.253 -60.822)" fill="#fff"></path>
    <path id="Tracé_285" data-name="Tracé 285" d="M368.085,101.088a9.482,9.482,0,0,0,.815,3.8,6.667,6.667,0,0,0,2.4,2.859,7.056,7.056,0,0,0,4.041,1.087,7.558,7.558,0,0,0,3.32-.65,7.007,7.007,0,0,0,2.127-1.513,6.732,6.732,0,0,0,1.123-1.548l1.678,1.654a10.247,10.247,0,0,1-2.02,2.3,7.936,7.936,0,0,1-2.694,1.453,12.1,12.1,0,0,1-3.675.5,9.682,9.682,0,0,1-5.282-1.382,8.943,8.943,0,0,1-3.332-3.77,12.235,12.235,0,0,1-1.146-5.365,11.252,11.252,0,0,1,1.135-5.1,8.732,8.732,0,0,1,3.273-3.592,9.625,9.625,0,0,1,5.164-1.323,9.121,9.121,0,0,1,4.762,1.205,8.3,8.3,0,0,1,3.143,3.344,10.559,10.559,0,0,1,1.123,4.975c0,.142,0,.323-.012.543s-.02.394-.035.52Zm13.258-2.245a7.34,7.34,0,0,0-.626-2.706,5.814,5.814,0,0,0-1.961-2.434,6.144,6.144,0,0,0-3.722-1,6.9,6.9,0,0,0-3.911.981,5.9,5.9,0,0,0-2.115,2.4,8.688,8.688,0,0,0-.8,2.765Z" transform="translate(-245.595 -60.822)" fill="#fff"></path>
  </g>
</svg>
