<?xml version="1.0" encoding="UTF-8"?>
<svg xmlns="http://www.w3.org/2000/svg" xmlns:xlink="http://www.w3.org/1999/xlink" id="Groupe_79" data-name="Groupe 79" width="129.86" height="52" viewBox="0 0 129.86 52">
  <defs>
    <clipPath id="clip-path">
      <rect id="Rectangle_66" data-name="Rectangle 66" width="129.86" height="52" fill="#3e5f7d"></rect>
    </clipPath>
  </defs>
  <g id="Groupe_78" data-name="Groupe 78" clip-path="url(#clip-path)">
    <path id="Tracé_274" data-name="Tracé 274" d="M31.787.5V9.344a7.717,7.717,0,0,1-1.3,4.714A4.62,4.62,0,0,1,26.527,15.8a4.625,4.625,0,0,1-3.95-1.743,7.664,7.664,0,0,1-1.248-4.714l0-1.342V6.745a6.882,6.882,0,0,0-.99-3.868A5.914,5.914,0,0,0,17.824.691,7.528,7.528,0,0,0,14.689,0a6.425,6.425,0,0,0-2.857.639A7.423,7.423,0,0,0,9.686,2.156a3.467,3.467,0,0,0-.98,1.6V.5H6.355V17.431H8.707V7.962a5.826,5.826,0,0,1,.815-3.053A6.235,6.235,0,0,1,11.6,2.764a4.938,4.938,0,0,1,2.63-.784,4.728,4.728,0,0,1,3.383,1.248A5.4,5.4,0,0,1,18.938,7.3V8l0,1.755a9.622,9.622,0,0,0,.887,4.218,6.8,6.8,0,0,0,2.579,2.9,7.662,7.662,0,0,0,4.125,1.052,7.705,7.705,0,0,0,4.146-1.052,6.8,6.8,0,0,0,2.578-2.9,9.622,9.622,0,0,0,.887-4.218V.5Z" transform="translate(-4.549)" fill="#3e5f7d"></path>
    <path id="Tracé_275" data-name="Tracé 275" d="M142.151,17.431V13.883a4.533,4.533,0,0,1-.959,1.527,7.619,7.619,0,0,1-2.249,1.743,7.047,7.047,0,0,1-3.393.773,8.6,8.6,0,0,1-4.219-1.062,8,8,0,0,1-3.094-3.073,9.444,9.444,0,0,1-1.166-4.817,9.446,9.446,0,0,1,1.166-4.817,8.076,8.076,0,0,1,3.094-3.084A8.537,8.537,0,0,1,135.55,0a7.31,7.31,0,0,1,3.383.732,7.606,7.606,0,0,1,2.259,1.681A3.561,3.561,0,0,1,142.13,4V.5h2.31V17.431ZM129.4,8.973a7.042,7.042,0,0,0,.928,3.692,6.454,6.454,0,0,0,2.4,2.372,6.263,6.263,0,0,0,3.1.825,6.066,6.066,0,0,0,3.2-.846,5.97,5.97,0,0,0,2.218-2.393,7.736,7.736,0,0,0,.815-3.651,7.735,7.735,0,0,0-.815-3.651,5.912,5.912,0,0,0-5.415-3.259,6.2,6.2,0,0,0-3.1.836,6.538,6.538,0,0,0-2.4,2.382,7.044,7.044,0,0,0-.928,3.693" transform="translate(-90.956)" fill="#3e5f7d"></path>
    <path id="Tracé_276" data-name="Tracé 276" d="M223.252,0a7.53,7.53,0,0,1,3.136.691A5.914,5.914,0,0,1,228.9,2.878a6.884,6.884,0,0,1,.99,3.868V17.431H227.5V7.3a5.4,5.4,0,0,0-1.32-4.074A4.729,4.729,0,0,0,222.8,1.98a4.938,4.938,0,0,0-2.63.784,6.232,6.232,0,0,0-2.083,2.145,5.823,5.823,0,0,0-.815,3.053v9.468h-2.352V.5h2.352V3.754a3.466,3.466,0,0,1,.98-1.6A7.417,7.417,0,0,1,220.394.639,6.426,6.426,0,0,1,223.252,0" transform="translate(-153.834)" fill="#3e5f7d"></path>
    <path id="Tracé_277" data-name="Tracé 277" d="M299.211,15.863a6.341,6.341,0,0,0,2.908-.567,8.047,8.047,0,0,0,1.341-.794l1.237,1.815a9.8,9.8,0,0,1-.928.526,10.276,10.276,0,0,1-1.97.743,10.077,10.077,0,0,1-2.733.34,8.283,8.283,0,0,1-3.94-1.011A8.132,8.132,0,0,1,292,13.9a9.3,9.3,0,0,1-1.228-4.951A9.292,9.292,0,0,1,292,3.992,8.079,8.079,0,0,1,295.127,1a8.347,8.347,0,0,1,3.94-1,8.768,8.768,0,0,1,2.682.371,8.9,8.9,0,0,1,1.9.825,5.027,5.027,0,0,1,.928.66l-1.217,1.795q-.185-.165-.691-.547a5.61,5.61,0,0,0-1.372-.712,6.006,6.006,0,0,0-4.971.474,6.377,6.377,0,0,0-2.342,2.341,7.181,7.181,0,0,0-.918,3.744,7.237,7.237,0,0,0,.918,3.755,6.356,6.356,0,0,0,2.342,2.352,5.81,5.81,0,0,0,2.888.8" transform="translate(-208.131)" fill="#3e5f7d"></path>
    <path id="Tracé_278" data-name="Tracé 278" d="M357.038,9.242a8.3,8.3,0,0,0,.712,3.321,5.819,5.819,0,0,0,2.094,2.5,6.159,6.159,0,0,0,3.527.949,6.6,6.6,0,0,0,2.9-.567,6.118,6.118,0,0,0,1.857-1.32,5.9,5.9,0,0,0,.98-1.351l1.465,1.444a8.942,8.942,0,0,1-1.764,2.011,6.923,6.923,0,0,1-2.352,1.268,10.554,10.554,0,0,1-3.207.433,8.452,8.452,0,0,1-4.611-1.207,7.806,7.806,0,0,1-2.908-3.29,10.68,10.68,0,0,1-1-4.682,9.827,9.827,0,0,1,.99-4.456,7.627,7.627,0,0,1,2.857-3.135A8.4,8.4,0,0,1,363.082,0a7.961,7.961,0,0,1,4.156,1.052,7.248,7.248,0,0,1,2.744,2.919,9.211,9.211,0,0,1,.98,4.342c0,.124,0,.282-.01.474s-.017.344-.031.454Zm11.573-1.959a6.416,6.416,0,0,0-.547-2.362A5.08,5.08,0,0,0,366.351,2.8a5.36,5.36,0,0,0-3.249-.877,6.018,6.018,0,0,0-3.414.856,5.149,5.149,0,0,0-1.846,2.094,7.6,7.6,0,0,0-.7,2.414Z" transform="translate(-253.908 -0.001)" fill="#3e5f7d"></path>
    <path id="Tracé_279" data-name="Tracé 279" d="M449.441,27.8a1.481,1.481,0,1,1-1.481-1.481,1.481,1.481,0,0,1,1.481,1.481" transform="translate(-319.581 -18.842)" fill="#3e5f7d"></path>
    <path id="Tracé_280" data-name="Tracé 280" d="M14.972,107.808v-3.523a4.508,4.508,0,0,1-.952,1.515,7.558,7.558,0,0,1-2.233,1.731,7,7,0,0,1-3.369.768,8.539,8.539,0,0,1-4.188-1.055,7.945,7.945,0,0,1-3.072-3.052,10.462,10.462,0,0,1,0-9.565,8.02,8.02,0,0,1,3.072-3.062A8.477,8.477,0,0,1,8.418,90.5a7.259,7.259,0,0,1,3.359.727A7.538,7.538,0,0,1,14.02,92.9a3.529,3.529,0,0,1,.932,1.577V90.992h2.294v16.815Zm-6.063,8.971a13.184,13.184,0,0,1-3.646-.451,8.645,8.645,0,0,1-2.611-1.2,6.28,6.28,0,0,1-1.629-1.608l1.721-1.515a8.877,8.877,0,0,0,1.024,1.147,5.437,5.437,0,0,0,1.864,1.1,9.222,9.222,0,0,0,3.216.461,5.977,5.977,0,0,0,3.369-.9,5.705,5.705,0,0,0,2.058-2.4,7.716,7.716,0,0,0,.7-3.3v-.594h2.273v.778a9,9,0,0,1-1.116,4.639,7.329,7.329,0,0,1-3.01,2.867,9.083,9.083,0,0,1-4.209.973M2.314,99.41a7,7,0,0,0,.922,3.666,6.413,6.413,0,0,0,2.386,2.355,6.221,6.221,0,0,0,3.082.819,6.026,6.026,0,0,0,3.175-.84,5.934,5.934,0,0,0,2.2-2.376,8.528,8.528,0,0,0,0-7.25A5.87,5.87,0,0,0,8.7,92.549a6.162,6.162,0,0,0-3.082.829,6.493,6.493,0,0,0-2.386,2.366,6.994,6.994,0,0,0-.922,3.666" transform="translate(0 -64.779)" fill="#3e5f7d"></path>
    <path id="Tracé_281" data-name="Tracé 281" d="M86.867,107.808H84.573V90.992h2.294v3.031h-.1a3.223,3.223,0,0,1,.748-1.362,6.41,6.41,0,0,1,1.812-1.495,5.293,5.293,0,0,1,2.7-.666,6.216,6.216,0,0,1,2.038.3,3.477,3.477,0,0,1,1.178.6L94.22,93.389a2.858,2.858,0,0,0-.993-.532,5.111,5.111,0,0,0-1.751-.266,3.515,3.515,0,0,0-2.448.942,6.487,6.487,0,0,0-1.6,2.243,6.061,6.061,0,0,0-.563,2.386Z" transform="translate(-60.536 -64.779)" fill="#3e5f7d"></path>
    <path id="Tracé_282" data-name="Tracé 282" d="M139.269,108.3a8.392,8.392,0,0,1-7.547-4.362,9.067,9.067,0,0,1-1.116-4.486,9.24,9.24,0,0,1,1.116-4.516,8.533,8.533,0,0,1,3.072-3.236,8.391,8.391,0,0,1,4.475-1.2,8.287,8.287,0,0,1,4.455,1.2,8.506,8.506,0,0,1,3.041,3.236,9.312,9.312,0,0,1,1.106,4.516,9.137,9.137,0,0,1-1.106,4.486,8.3,8.3,0,0,1-7.5,4.362m0-2.109a6.2,6.2,0,0,0,3.328-.881,6.01,6.01,0,0,0,2.212-2.417,7.426,7.426,0,0,0,.788-3.441,7.534,7.534,0,0,0-.788-3.472,6.217,6.217,0,0,0-2.212-2.458,6.042,6.042,0,0,0-3.328-.911,6.128,6.128,0,0,0-3.359.911,6.26,6.26,0,0,0-2.233,2.458,7.455,7.455,0,0,0-.8,3.472,7.348,7.348,0,0,0,.8,3.441,6.053,6.053,0,0,0,2.233,2.417,6.285,6.285,0,0,0,3.359.881" transform="translate(-93.485 -64.78)" fill="#3e5f7d"></path>
    <path id="Tracé_283" data-name="Tracé 283" d="M213.2,101.018a7.614,7.614,0,0,0,1.3,4.68,5.321,5.321,0,0,0,7.854,0,7.656,7.656,0,0,0,1.29-4.68V92.231h2.335v9.2a9.558,9.558,0,0,1-.881,4.189,6.758,6.758,0,0,1-2.56,2.878,8.6,8.6,0,0,1-8.213,0,6.758,6.758,0,0,1-2.56-2.878,9.555,9.555,0,0,1-.88-4.189v-9.2H213.2Z" transform="translate(-150.945 -66.017)" fill="#3e5f7d"></path>
    <path id="Tracé_284" data-name="Tracé 284" d="M289.89,116.328h-2.335V90.992h2.4v3.482a3.531,3.531,0,0,1,.993-1.608,7.937,7.937,0,0,1,5.786-2.366,8.069,8.069,0,0,1,4.127,1.065,7.706,7.706,0,0,1,2.918,3.062,11.032,11.032,0,0,1-.01,9.565,7.675,7.675,0,0,1-2.939,3.052,8.181,8.181,0,0,1-4.137,1.055,7.838,7.838,0,0,1-5.848-2.478,3.7,3.7,0,0,1-.952-1.536ZM302.527,99.41a7.388,7.388,0,0,0-.86-3.666,6.242,6.242,0,0,0-2.242-2.366,5.727,5.727,0,0,0-3-.829,6.407,6.407,0,0,0-3.257.85,6.253,6.253,0,0,0-2.345,2.386,7.986,7.986,0,0,0,0,7.25,6.179,6.179,0,0,0,2.345,2.376,6.464,6.464,0,0,0,3.257.84,5.781,5.781,0,0,0,3-.819,6.163,6.163,0,0,0,2.242-2.355,7.389,7.389,0,0,0,.86-3.666" transform="translate(-205.827 -64.779)" fill="#3e5f7d"></path>
    <path id="Tracé_285" data-name="Tracé 285" d="M367.732,99.677a8.219,8.219,0,0,0,.707,3.3,5.778,5.778,0,0,0,2.079,2.478,6.116,6.116,0,0,0,3.5.942,6.551,6.551,0,0,0,2.877-.563,6.073,6.073,0,0,0,1.843-1.311,5.835,5.835,0,0,0,.973-1.342l1.454,1.434a8.88,8.88,0,0,1-1.751,2,6.877,6.877,0,0,1-2.335,1.26,10.482,10.482,0,0,1-3.185.43,8.391,8.391,0,0,1-4.578-1.2,7.75,7.75,0,0,1-2.888-3.267,10.6,10.6,0,0,1-.993-4.649,9.752,9.752,0,0,1,.983-4.424,7.568,7.568,0,0,1,2.837-3.113,8.342,8.342,0,0,1,4.475-1.147,7.905,7.905,0,0,1,4.127,1.044,7.2,7.2,0,0,1,2.724,2.9,9.152,9.152,0,0,1,.973,4.312c0,.123,0,.28-.01.471s-.017.342-.031.451Zm11.49-1.946a6.362,6.362,0,0,0-.543-2.345,5.039,5.039,0,0,0-1.7-2.11,5.325,5.325,0,0,0-3.226-.871,5.976,5.976,0,0,0-3.39.85,5.11,5.11,0,0,0-1.833,2.079,7.53,7.53,0,0,0-.7,2.4Z" transform="translate(-261.574 -64.779)" fill="#3e5f7d"></path>
  </g>
</svg>
