<svg xmlns="http://www.w3.org/2000/svg" width="20.907" height="20.907" viewBox="0 0 20.907 20.907">
  <defs>
    <style>
      .cls-1 {
        fill: #fff;
      }
    </style>
  </defs>
  <path id="phone" class="cls-1" d="M20.906,16.512a4.9,4.9,0,0,1-.149,1.047,5.893,5.893,0,0,1-.312,1.017,3.982,3.982,0,0,1-1.811,1.574,5.756,5.756,0,0,1-2.762.757,5.926,5.926,0,0,1-.787-.052,6.02,6.02,0,0,1-.854-.186q-.467-.134-.7-.215t-.824-.3q-.594-.223-.728-.267a13.442,13.442,0,0,1-2.6-1.232,22.385,22.385,0,0,1-3.92-3.207,22.386,22.386,0,0,1-3.207-3.92,13.465,13.465,0,0,1-1.232-2.6Q.98,8.791.757,8.2t-.3-.824q-.082-.23-.215-.7a6.154,6.154,0,0,1-.186-.854A5.79,5.79,0,0,1,0,5.034,5.759,5.759,0,0,1,.757,2.272,3.982,3.982,0,0,1,2.331.461,5.914,5.914,0,0,1,3.348.149,4.894,4.894,0,0,1,4.395,0a.829.829,0,0,1,.312.045q.267.089.787,1.128.163.282.445.8t.52.943q.238.423.461.794.045.059.26.371a4.228,4.228,0,0,1,.319.527.959.959,0,0,1,.1.423,1.232,1.232,0,0,1-.423.742,7.253,7.253,0,0,1-.92.817,8.96,8.96,0,0,0-.92.787,1.131,1.131,0,0,0-.423.683,1,1,0,0,0,.074.334q.074.2.126.3t.208.357q.156.253.171.282a15.583,15.583,0,0,0,2.584,3.49,15.583,15.583,0,0,0,3.49,2.584q.03.015.282.171t.357.208a3.117,3.117,0,0,0,.3.126,1.021,1.021,0,0,0,.334.074,1.131,1.131,0,0,0,.683-.423,8.961,8.961,0,0,0,.787-.92,7.253,7.253,0,0,1,.816-.92,1.232,1.232,0,0,1,.742-.423.969.969,0,0,1,.423.1,4.135,4.135,0,0,1,.527.319q.312.215.371.26.371.223.794.461t.943.52q.52.282.8.445,1.039.52,1.128.787a.829.829,0,0,1,.045.312Z" transform="translate(0)"/>
</svg>
