<?xml version="1.0" encoding="UTF-8"?>
<svg xmlns="http://www.w3.org/2000/svg" width="68.718" height="47.896" viewBox="0 0 68.718 47.896">
  <g id="Groupe_181" data-name="Groupe 181" transform="translate(-196.753 -828.669)">
    <path id="roofing" d="M27.382,3.039a1.717,1.717,0,0,0-1.08.456L.551,27.4a1.717,1.717,0,0,0,1.167,2.978h5.15v10.3H10.3v-10.3H44.637v10.3H48.07v-10.3h5.15A1.717,1.717,0,0,0,54.387,27.4l-9.75-9.053v-12H41.2v8.818L28.636,3.495A1.717,1.717,0,0,0,27.382,3.039ZM27.469,7.1l21.379,19.85H6.09Z" transform="translate(197.538 835.135)" fill="#3b4f66" stroke="#fff" stroke-width="1.5"></path>
    <path id="Tracé_248" data-name="Tracé 248" d="M633.263,899l23.2,21.343h-4.3L624,907.893Z" transform="translate(-408.281 -57.571)" fill="#e2dfd8" stroke="#e2dfd8" stroke-width="0.5"></path>
    <path id="Tracé_267" data-name="Tracé 267" d="M659,893.455s1.592-4.132,4.244-5.275,6.367.7,6.367.7,7.883-7.033,14.552-2.813,4.851,7.384,4.851,7.384Z" transform="translate(-424.541 -55.283)" fill="none" stroke="#e2dfd8" stroke-width="1.5"></path>
  </g>
</svg>
