<?xml version="1.0" encoding="UTF-8"?>
<svg xmlns="http://www.w3.org/2000/svg" xmlns:xlink="http://www.w3.org/1999/xlink" id="Groupe_225" data-name="Groupe 225" width="824.051" height="673.995" viewBox="0 0 824.051 673.995">
  <defs>
    <clipPath id="clip-path">
      <rect id="Rectangle_175" data-name="Rectangle 175" width="824.051" height="673.995" fill="none"></rect>
    </clipPath>
    <clipPath id="clip-path-3">
      <rect id="Rectangle_149" data-name="Rectangle 149" width="824.051" height="601.032" fill="none"></rect>
    </clipPath>
  </defs>
  <g id="Groupe_224" data-name="Groupe 224" clip-path="url(#clip-path)">
    <g id="Groupe_223" data-name="Groupe 223">
      <g id="Groupe_222" data-name="Groupe 222" clip-path="url(#clip-path)">
        <g id="Groupe_221" data-name="Groupe 221" opacity="0.15" style="isolation: isolate">
          <g id="Groupe_220" data-name="Groupe 220">
            <g id="Groupe_219" data-name="Groupe 219" clip-path="url(#clip-path-3)">
              <path id="Tracé_621" data-name="Tracé 621" d="M721.031,117.638c95.661,100.4,161.548,280.484,26.216,425.977-87.85,94.446-202.28,47.408-329.566,32.344C251.312,556.269,123.312,602.347,45.538,492.7-74.887,322.937,53.044,62.49,317.324,10.057c144.359-28.641,303.95,2.88,403.707,107.581" fill="#8fa7b8"></path>
            </g>
          </g>
        </g>
        <path id="Tracé_622" data-name="Tracé 622" d="M632.662,634.744c0,13.645-113.743,24.707-254.052,24.707s-254.051-11.062-254.051-24.707S238.3,610.037,378.61,610.037,632.662,621.1,632.662,634.744" fill="#dbe8cc" fill-rule="evenodd"></path>
        <line id="Ligne_42" data-name="Ligne 42" y2="120.505" transform="translate(371.061 508.216)" fill="none" stroke="#b5c2a7" stroke-linecap="round" stroke-linejoin="round" stroke-width="12.306"></line>
        <line id="Ligne_43" data-name="Ligne 43" y2="120.505" transform="translate(429.919 508.216)" fill="none" stroke="#b5c2a7" stroke-linecap="round" stroke-linejoin="round" stroke-width="12.306"></line>
        <path id="Tracé_623" data-name="Tracé 623" d="M371.061,521.038h0A19.616,19.616,0,0,1,351.5,501.48V450.887a19.559,19.559,0,1,1,39.118,0V501.48a19.616,19.616,0,0,1-19.559,19.558" fill="#5c7a3d"></path>
        <path id="Tracé_624" data-name="Tracé 624" d="M429.919,521.038h0A19.616,19.616,0,0,1,410.36,501.48V450.887a19.559,19.559,0,1,1,39.118,0V501.48a19.616,19.616,0,0,1-19.559,19.558" fill="#5c7a3d"></path>
        <path id="Tracé_625" data-name="Tracé 625" d="M319.513,271.2s-12.2-134.81-117.266-175.856L278.6,267.178s-45.789-90.052-158.253-51.047c0,0,105.189,37.459,139.119,93.5,0,0,15.342,45.32,25.868,49.039,64.125,22.656,34.178-87.472,34.178-87.472" fill="#b0c98f"></path>
        <path id="Tracé_626" data-name="Tracé 626" d="M536.314,488.318H263.435a47.791,47.791,0,0,1-47.651-47.651V275.6a47.791,47.791,0,0,1,47.651-47.651H536.314A47.791,47.791,0,0,1,583.965,275.6V440.667a47.791,47.791,0,0,1-47.651,47.651" fill="#5c7a3d"></path>
        <rect id="Rectangle_150" data-name="Rectangle 150" width="301.437" height="201.123" transform="translate(249.28 255.766)" fill="#fff"></rect>
        <rect id="Rectangle_151" data-name="Rectangle 151" width="211.097" height="49.924" transform="translate(290.225 290.738)" fill="#5c7a3d"></rect>
        <rect id="Rectangle_152" data-name="Rectangle 152" width="33.19" height="49.924" transform="translate(468.132 290.738)" fill="#f7ae25"></rect>
        <path id="Tracé_627" data-name="Tracé 627" d="M313.231,329.943a8.091,8.091,0,0,1-7.225-4.114q-2.586-4.116-2.584-11.819t2.584-11.723a8.459,8.459,0,0,1,14.4,0q2.584,4.02,2.586,11.723t-2.586,11.819a8.054,8.054,0,0,1-7.175,4.114m0-3.157a4.156,4.156,0,0,0,2.414-.742,5.994,5.994,0,0,0,1.867-2.3,14.363,14.363,0,0,0,1.221-3.971,33.488,33.488,0,0,0,.429-5.766,33.071,33.071,0,0,0-.429-5.742,13.667,13.667,0,0,0-1.221-3.9,5.854,5.854,0,0,0-1.867-2.224,4.247,4.247,0,0,0-2.414-.718,4.374,4.374,0,0,0-2.442.718,5.791,5.791,0,0,0-1.89,2.224,13.732,13.732,0,0,0-1.221,3.9,33.171,33.171,0,0,0-.429,5.742q0,6.7,1.65,9.737t4.332,3.039" fill="#fff"></path>
        <path id="Tracé_628" data-name="Tracé 628" d="M331.685,327.024q3.443-3.444,6.122-6.22a60.778,60.778,0,0,0,4.5-5.144,25.657,25.657,0,0,0,2.776-4.353,8.854,8.854,0,0,0,.957-3.853,6.379,6.379,0,0,0-1.436-4.306,5.421,5.421,0,0,0-4.353-1.674,6.286,6.286,0,0,0-3.542,1.076,14.761,14.761,0,0,0-2.966,2.607l-2.249-2.248a17.62,17.62,0,0,1,4.068-3.374,10.022,10.022,0,0,1,5.167-1.268,9,9,0,0,1,6.7,2.465,8.877,8.877,0,0,1,2.442,6.531,10.934,10.934,0,0,1-.932,4.33,24.537,24.537,0,0,1-2.585,4.5,53.626,53.626,0,0,1-3.923,4.833q-2.275,2.512-5,5.334,1.242-.093,2.583-.19c.893-.064,1.737-.1,2.537-.1H351.4v3.4H331.685Z" fill="#fff"></path>
        <path id="Tracé_629" data-name="Tracé 629" d="M370.139,329.943a8.091,8.091,0,0,1-7.225-4.114q-2.584-4.116-2.584-11.819t2.584-11.723a8.459,8.459,0,0,1,14.4,0q2.584,4.02,2.586,11.723t-2.586,11.819a8.054,8.054,0,0,1-7.175,4.114m0-3.157a4.156,4.156,0,0,0,2.414-.742,5.994,5.994,0,0,0,1.867-2.3,14.364,14.364,0,0,0,1.221-3.971,33.488,33.488,0,0,0,.429-5.766,33.071,33.071,0,0,0-.429-5.742,13.669,13.669,0,0,0-1.221-3.9,5.854,5.854,0,0,0-1.867-2.224,4.247,4.247,0,0,0-2.414-.718,4.374,4.374,0,0,0-2.442.718,5.782,5.782,0,0,0-1.89,2.224,13.731,13.731,0,0,0-1.221,3.9,33.171,33.171,0,0,0-.429,5.742q0,6.7,1.65,9.737t4.332,3.039" fill="#fff"></path>
        <path id="Tracé_630" data-name="Tracé 630" d="M397.971,329.943a14.424,14.424,0,0,1-3.325-.358,13.615,13.615,0,0,1-2.752-.958,12.213,12.213,0,0,1-2.226-1.363,13.361,13.361,0,0,1-1.745-1.627l2.01-2.584a15.529,15.529,0,0,0,3.229,2.536,8.767,8.767,0,0,0,4.569,1.1,6.759,6.759,0,0,0,4.546-1.508,5.1,5.1,0,0,0,1.771-4.091,5.987,5.987,0,0,0-.5-2.464,4.755,4.755,0,0,0-1.652-1.938,8.493,8.493,0,0,0-3.015-1.244,20.8,20.8,0,0,0-4.592-.431V312a16.445,16.445,0,0,0,4.09-.431,7.712,7.712,0,0,0,2.68-1.2,4.278,4.278,0,0,0,1.46-1.818,5.859,5.859,0,0,0,.429-2.249,4.562,4.562,0,0,0-1.41-3.54,5.484,5.484,0,0,0-3.853-1.292,7.31,7.31,0,0,0-3.516.86,12.831,12.831,0,0,0-2.99,2.249L389.07,302.1a16.475,16.475,0,0,1,3.9-2.752,10.619,10.619,0,0,1,4.856-1.077,12.263,12.263,0,0,1,3.684.526,8.8,8.8,0,0,1,2.9,1.508,6.7,6.7,0,0,1,1.889,2.417,7.7,7.7,0,0,1,.671,3.3,6.7,6.7,0,0,1-1.531,4.546,9.907,9.907,0,0,1-4.019,2.727v.192a10.7,10.7,0,0,1,2.584.98,8.1,8.1,0,0,1,2.1,1.627,7.077,7.077,0,0,1,1.412,2.273,7.879,7.879,0,0,1,.5,2.871,8.206,8.206,0,0,1-.789,3.636,8.086,8.086,0,0,1-2.155,2.751,9.667,9.667,0,0,1-3.181,1.723,12.5,12.5,0,0,1-3.923.6" fill="#fff"></path>
        <path id="Tracé_631" data-name="Tracé 631" d="M437.573,320.949H433.41v8.421h-3.731v-8.421H415.945v-2.584l13.063-19.524h4.4v18.948h4.163Zm-7.894-3.16v-8.851q0-1.245.071-2.942c.048-1.133.1-2.112.169-2.944h-.192q-.576,1.1-1.2,2.154t-1.292,2.152l-7.13,10.431Z" fill="#fff"></path>
        <path id="Tracé_632" data-name="Tracé 632" d="M452.821,321.474a46.818,46.818,0,0,1,1.6-6.818,37.257,37.257,0,0,1,2.632-6.244,55.958,55.958,0,0,1,3.852-6.172H445.694v-3.4h19.665v2.441a45.422,45.422,0,0,0-4.427,6.6,35.6,35.6,0,0,0-2.7,6.435,40.8,40.8,0,0,0-1.461,6.939q-.455,3.66-.646,8.11h-4.066a70.094,70.094,0,0,1,.764-7.895" fill="#fff"></path>
        <path id="Tracé_633" data-name="Tracé 633" d="M483.238,316.977a14.424,14.424,0,0,1-3.325-.358,14.043,14.043,0,0,1-2.727-.934,12.282,12.282,0,0,1-2.2-1.315,14.151,14.151,0,0,1-1.746-1.556l1.915-2.583a14.1,14.1,0,0,0,3.181,2.44,8.974,8.974,0,0,0,4.522,1.053,6.791,6.791,0,0,0,2.608-.5,6.484,6.484,0,0,0,2.129-1.412,6.628,6.628,0,0,0,1.436-2.2,7.544,7.544,0,0,0,.527-2.871,6.662,6.662,0,0,0-1.771-4.928,6.4,6.4,0,0,0-4.738-1.771,6.861,6.861,0,0,0-2.7.479,16.362,16.362,0,0,0-2.513,1.387l-2.106-1.34,1.006-14.69h15.264v3.4h-11.82l-.812,9.043a12.771,12.771,0,0,1,2.2-.91,8.586,8.586,0,0,1,2.487-.335,11.552,11.552,0,0,1,3.686.575,8.366,8.366,0,0,1,3.015,1.746,8.144,8.144,0,0,1,2.033,2.967,11.207,11.207,0,0,1,.742,4.282,10.618,10.618,0,0,1-.863,4.4,9.72,9.72,0,0,1-2.3,3.229,10.022,10.022,0,0,1-3.277,2.009,10.849,10.849,0,0,1-3.852.694" fill="#fff"></path>
        <line id="Ligne_44" data-name="Ligne 44" y2="39.985" transform="translate(327.784 293.974)" fill="none" stroke="#2a5241" stroke-linecap="round" stroke-linejoin="round" stroke-width="1.168"></line>
        <line id="Ligne_45" data-name="Ligne 45" y2="39.985" transform="translate(355.864 293.974)" fill="none" stroke="#2a5241" stroke-linecap="round" stroke-linejoin="round" stroke-width="1.168"></line>
        <line id="Ligne_46" data-name="Ligne 46" y2="39.985" transform="translate(383.945 293.974)" fill="none" stroke="#2a5241" stroke-linecap="round" stroke-linejoin="round" stroke-width="1.168"></line>
        <line id="Ligne_47" data-name="Ligne 47" y2="39.985" transform="translate(412.026 293.974)" fill="none" stroke="#2a5241" stroke-linecap="round" stroke-linejoin="round" stroke-width="1.168"></line>
        <line id="Ligne_48" data-name="Ligne 48" y2="39.985" transform="translate(440.106 293.974)" fill="none" stroke="#2a5241" stroke-linecap="round" stroke-linejoin="round" stroke-width="1.168"></line>
        <path id="Tracé_634" data-name="Tracé 634" d="M495.929,384.268H295.618a5.393,5.393,0,1,1,0-10.786H495.929a5.393,5.393,0,0,1,0,10.786" fill="#e6eddd"></path>
        <rect id="Rectangle_153" data-name="Rectangle 153" width="64.099" height="10.786" transform="translate(359.256 373.482)" fill="#f7ae25"></rect>
        <rect id="Rectangle_154" data-name="Rectangle 154" width="194.764" height="39.446" transform="translate(301.011 397.673)" fill="none" stroke="#2f4526" stroke-linecap="round" stroke-linejoin="round" stroke-width="1.264"></rect>
        <rect id="Rectangle_155" data-name="Rectangle 155" width="3.236" height="24.962" transform="translate(316.728 406.456)" fill="#2f4526"></rect>
        <rect id="Rectangle_156" data-name="Rectangle 156" width="3.236" height="24.962" transform="translate(324.548 406.456)" fill="#2f4526"></rect>
        <rect id="Rectangle_157" data-name="Rectangle 157" width="3.236" height="24.962" transform="translate(459.831 406.456)" fill="#2f4526"></rect>
        <rect id="Rectangle_158" data-name="Rectangle 158" width="3.236" height="24.962" transform="translate(467.651 406.456)" fill="#2f4526"></rect>
        <rect id="Rectangle_159" data-name="Rectangle 159" width="3.236" height="24.962" transform="translate(339.303 406.456)" fill="#2f4526"></rect>
        <rect id="Rectangle_160" data-name="Rectangle 160" width="3.236" height="24.962" transform="translate(354.4 406.456)" fill="#2f4526"></rect>
        <rect id="Rectangle_161" data-name="Rectangle 161" width="3.236" height="24.962" transform="translate(398.393 406.456)" fill="#2f4526"></rect>
        <rect id="Rectangle_162" data-name="Rectangle 162" width="3.236" height="24.962" transform="translate(405.843 406.456)" fill="#2f4526"></rect>
        <rect id="Rectangle_163" data-name="Rectangle 163" width="3.236" height="24.962" transform="translate(412.968 406.456)" fill="#2f4526"></rect>
        <rect id="Rectangle_164" data-name="Rectangle 164" width="3.236" height="24.962" transform="translate(376.898 406.456)" fill="#2f4526"></rect>
        <rect id="Rectangle_165" data-name="Rectangle 165" width="3.236" height="24.962" transform="translate(383.909 406.456)" fill="#2f4526"></rect>
        <rect id="Rectangle_166" data-name="Rectangle 166" width="5.275" height="24.962" transform="translate(345.468 406.456)" fill="#2f4526"></rect>
        <rect id="Rectangle_167" data-name="Rectangle 167" width="3.236" height="24.962" transform="translate(428.21 406.456)" fill="#2f4526"></rect>
        <rect id="Rectangle_168" data-name="Rectangle 168" width="5.275" height="24.962" transform="translate(434.375 406.456)" fill="#2f4526"></rect>
        <rect id="Rectangle_169" data-name="Rectangle 169" width="5.275" height="24.962" transform="translate(443.312 406.456)" fill="#2f4526"></rect>
        <rect id="Rectangle_170" data-name="Rectangle 170" width="5.275" height="24.962" transform="translate(473.238 406.456)" fill="#2f4526"></rect>
        <rect id="Rectangle_171" data-name="Rectangle 171" width="5.275" height="24.962" transform="translate(368.423 406.456)" fill="#2f4526"></rect>
        <path id="Tracé_635" data-name="Tracé 635" d="M615.553,240.674A59.573,59.573,0,1,1,555.98,181.1a59.573,59.573,0,0,1,59.573,59.573" fill="#fff" fill-rule="evenodd"></path>
        <path id="Tracé_636" data-name="Tracé 636" d="M547.07,205.221l25.415-.348a.242.242,0,0,1,.23.325l-11.978,32.973a.242.242,0,0,0,.233.324l22.747-.527a.242.242,0,0,1,.189.4L543.7,284.8a.242.242,0,0,1-.42-.206l6.924-34.386a.243.243,0,0,0-.238-.29L533.42,250a.243.243,0,0,1-.232-.314l13.654-44.294a.241.241,0,0,1,.228-.171" fill="#f7ae25"></path>
        <path id="Tracé_637" data-name="Tracé 637" d="M558.557,300.939a59.592,59.592,0,0,1-61.14-45.269" fill="none" stroke="#2f4526" stroke-linecap="round" stroke-linejoin="round" stroke-width="1.269"></path>
        <path id="Tracé_638" data-name="Tracé 638" d="M370.217,347.333h1.767v10.515h.065l4.516-5.584h1.985l-3.556,4.254,4.036,6.347h-1.963l-3.1-5.1-1.985,2.312v2.792h-1.767Z"></path>
        <path id="Tracé_639" data-name="Tracé 639" d="M379.728,348.556H381.6l1.505,7.787c.132.785.268,1.557.415,2.313s.283,1.526.415,2.312h.087q.238-1.179.5-2.323c.176-.764.342-1.531.5-2.3l1.984-7.787h1.658l1.985,7.787c.175.756.348,1.52.524,2.29s.349,1.549.523,2.335h.087q.2-1.179.394-2.323t.414-2.3l1.505-7.787h1.745l-2.968,14.31H390.7l-2.161-8.617q-.2-.828-.36-1.626c-.108-.53-.223-1.072-.339-1.625h-.087q-.174.83-.359,1.625t-.36,1.626l-2.117,8.617h-2.159Z"></path>
        <rect id="Rectangle_172" data-name="Rectangle 172" width="5.017" height="1.374" transform="translate(397.048 356.714)"></rect>
        <path id="Tracé_640" data-name="Tracé 640" d="M404.727,347.333h1.787v4.232l-.065,2.182a9.935,9.935,0,0,1,1.592-1.232,3.618,3.618,0,0,1,1.942-.513,2.854,2.854,0,0,1,2.455,1.047,5.183,5.183,0,0,1,.773,3.1v6.719h-1.789v-6.478a3.8,3.8,0,0,0-.479-2.171,1.753,1.753,0,0,0-1.527-.665,2.6,2.6,0,0,0-1.461.414,9.445,9.445,0,0,0-1.441,1.221v7.679h-1.787Z"></path>
        <path id="Tracé_641" data-name="Tracé 641" d="M518.2,664.273c0,5.369,51.75,9.722,115.587,9.722s115.588-4.353,115.588-9.723-51.75-9.721-115.589-9.721S518.2,658.9,518.2,664.273" fill="#dbe8cc" fill-rule="evenodd"></path>
        <rect id="Rectangle_173" data-name="Rectangle 173" width="131.682" height="135.436" transform="translate(590.056 523.906)" fill="#b5c2a7"></rect>
        <path id="Tracé_642" data-name="Tracé 642" d="M560.394,550.04s.469-17.889,23.889-33.076c5.033-3.264,57.113-38.707,58.975-36.762,2.046,2.135,34.19-4.274,33.269-2.544-15.34,28.819-89.355,87.06-89.355,87.06Z" fill="#3b4f66"></path>
        <path id="Tracé_643" data-name="Tracé 643" d="M602.691,552.985s3.085-18.5,17.787-32.4c16.379-15.495,49.536-38.188,51.842-36.111,2.532,2.282,23.868,38.406,22.555,39.37-18.483,13.566-66.446,39.363-66.446,39.363Z" fill="#6c8ca6"></path>
        <path id="Tracé_644" data-name="Tracé 644" d="M571.975,622.771c-.375,7.21-2.892,18.7-3.731,23.892-.506,3.131-2.291.743-5.923,1.935-4.468,1.467-5.809,7.178-6.893,3.8l.49-29.9Z" fill="#eb987a" fill-rule="evenodd"></path>
        <path id="Tracé_645" data-name="Tracé 645" d="M555.284,645.2l-8.19,6.361c-1.664,1.586-11.151,4.489-11.151,4.489-.826,2,1.141,3.127,2.765,3.44l28.609.208s8.049-1.367,1.283-14.337c-5.052,2.163-11.678,3.86-13.316-.161" fill="#3b4f66" fill-rule="evenodd"></path>
        <path id="Tracé_646" data-name="Tracé 646" d="M560.786,548.854c-2.959,4.587-10.043,87.358-10.043,87.358l21.764.492S594.648,575.7,591.336,556.5c0,0-29.031-10-30.55-7.644" fill="#3b4f66"></path>
        <path id="Tracé_647" data-name="Tracé 647" d="M613.609,622.771c-.375,7.21-3.081,18.561-3.92,23.75-.506,3.131-2.1.885-5.734,2.077-4.468,1.467-5.809,7.178-6.893,3.8l.49-29.9Z" fill="#eb987a" fill-rule="evenodd"></path>
        <path id="Tracé_648" data-name="Tracé 648" d="M596.918,645.2l-8.189,6.361c-1.665,1.586-11.153,4.489-11.153,4.489-.825,2,1.142,3.127,2.766,3.44l28.609.208s7.931-1.367,1.164-14.337c-5.051,2.163-11.559,3.86-13.2-.161" fill="#3b4f66" fill-rule="evenodd"></path>
        <path id="Tracé_649" data-name="Tracé 649" d="M602.419,548.854c-2.959,4.587-12.136,87.873-12.136,87.873l23.857-.023s24.034-44.241,17.789-75.643c0,0-27.991-14.562-29.51-12.207" fill="#6c8ca6"></path>
        <path id="Tracé_650" data-name="Tracé 650" d="M620.4,535.883c1.412-3.365,38.265-43.331,40.555-45.081l-19.472-14.515,11.591-6.218,5.011-.832,7.5-6.422,2.03,4.839,33.895,9.065s9.143,39.861-7.921,47.93-50.843,12.319-50.843,12.319c-25.315,7.755-25.138,5.563-22.348-1.085" fill="#6c8ca6"></path>
        <path id="Tracé_651" data-name="Tracé 651" d="M642.4,385.413l9.908-3.167,19.289-1.757,26.217,8.31c8.372,4.576,14.67,14.548,9.247,29.207l2.022,15c-.65,36.9-2,56.785-1.029,69.353-67.473,9.572-82.615,7.735-92.807-7.848,3.46-38.659-1.5-57.769,9.955-94.248,2.7-8.6,7.566-11.612,17.2-14.847" fill="#f6cd7d" fill-rule="evenodd"></path>
        <path id="Tracé_652" data-name="Tracé 652" d="M652.292,382.177s-8.149,19.036,4.869,19.561,21.428-19.031,21.428-19.031l-9.675-4.308Z" fill="#eb987a"></path>
        <path id="Tracé_653" data-name="Tracé 653" d="M643.99,385.029s-19.085,1.135-30.279,25.075c-1.567,3.35-4.386,9.821-7.891,12.906l12.643,15.738Z" fill="#dea364"></path>
        <path id="Tracé_654" data-name="Tracé 654" d="M619.753,452.213h0a1.561,1.561,0,0,1-.159-2.217L638.3,427.457a1.619,1.619,0,0,1,2.238-.287,1.561,1.561,0,0,1,.159,2.217l-18.708,22.539a1.619,1.619,0,0,1-2.238.287" fill="#4a2a1a"></path>
        <path id="Tracé_655" data-name="Tracé 655" d="M649.213,441.06l-8.14-5.8a8.254,8.254,0,0,0-5.705-1.448l-8.316.911a4.373,4.373,0,0,0-3.589,5.995l10.676,6.691a12.559,12.559,0,0,0,8.593,1.523l5.278-.828Z" fill="#eb987a"></path>
        <path id="Tracé_656" data-name="Tracé 656" d="M686.795,463.413c-16.742-9.254-22.647-13.6-39.222-23.293l-8.219,8.99c22.613,18.5,26.783,26,34.168,30.4,5.463,3.25,13.073,1.279,16.578-4.407,3.9-6.331-.809-9.42-3.3-11.686" fill="#eb987a"></path>
        <path id="Tracé_657" data-name="Tracé 657" d="M704.138,437.215,690.56,474.288l-16.334-12.815,13.81-36.039Z" fill="#eb987a"></path>
        <path id="Tracé_658" data-name="Tracé 658" d="M708.009,400.758c.972,1.823,5.638,17.871.042,44.8l-4.622,12.005s-26.779-11.414-26.882-13.277,17.045-36.452,17.045-36.452Z" fill="#f6cd7d"></path>
        <path id="Tracé_659" data-name="Tracé 659" d="M651.839,359.87a47.629,47.629,0,0,1-4.254,4.1c-1.275,1.125,1.038,4.146,2.615,3.734s4.026-5.17,4.026-5.17Z" fill="#eb987a" fill-rule="evenodd"></path>
        <path id="Tracé_660" data-name="Tracé 660" d="M653.915,370.529l5.24,16.566A6.025,6.025,0,0,0,664,391.017a7.707,7.707,0,0,0,6.548-1.879l1.6-1.5a6.84,6.84,0,0,0,1.821-7.874C670.9,373.008,665.3,360.7,665.3,360.7Z" fill="#eb987a" fill-rule="evenodd"></path>
        <path id="Tracé_661" data-name="Tracé 661" d="M670.917,359.639a5.022,5.022,0,0,0-3.536-6.138l-9.239-2.454c-2.655-.7-4.973,1.041-6.077,3.584-1.3,3-2.522,9.626-2.829,14.539-.173,2.771,1.252,5.746,3.907,6.451,2.833.753,12.038.278,14.2-4.628a72.994,72.994,0,0,0,3.578-11.354" fill="#eb987a" fill-rule="evenodd"></path>
        <path id="Tracé_662" data-name="Tracé 662" d="M671.571,373.564c2.135-.114,7.887-8.858,5.263-16.287a12.893,12.893,0,0,0-2.037-3.936c-4.99-5.9-6.435-6.091-15.215-.052,0,0-2.163,6.186-.677,9.993a23.325,23.325,0,0,0,4.585,7.337,9.317,9.317,0,0,0,7.3,2.978Z" fill="#eb987a" fill-rule="evenodd"></path>
        <path id="Tracé_663" data-name="Tracé 663" d="M663.04,367.558c-1.287,1.875-3.573,2.525-5.107,1.451s-1.734-3.466-.447-5.341,3.573-2.525,5.107-1.451,1.734,3.466.447,5.341" fill="#eb987a" fill-rule="evenodd"></path>
        <path id="Tracé_664" data-name="Tracé 664" d="M650.92,368.745l2.125.094s-.032,2.993-1.833,2.261c-.382-.155-.292-2.355-.292-2.355" fill="#fff" fill-rule="evenodd"></path>
        <path id="Tracé_665" data-name="Tracé 665" d="M652.806,353.33s2.422-11.1,14.382-6.867,13.944,13.468,10.8,21.257c0,0-6.417-6.031-10.132-8.7-4.308-3.1-15.05-5.689-15.05-5.689" fill="#3b4f66" fill-rule="evenodd"></path>
        <path id="Tracé_666" data-name="Tracé 666" d="M659.946,354.939s13.494,5.292,15.65,10.582" fill="none" stroke="#3d1e18" stroke-linecap="round" stroke-linejoin="round" stroke-width="0.621"></path>
        <path id="Tracé_667" data-name="Tracé 667" d="M590.85,485.188l37.717,1.638a2.4,2.4,0,0,0,2.557-3.243l-16.511-58.468a5.211,5.211,0,0,0-4.475-3.548l-37.716-1.638a2.4,2.4,0,0,0-2.558,3.243l16.511,58.467a5.212,5.212,0,0,0,4.475,3.549" fill="#fff"></path>
        <path id="Tracé_668" data-name="Tracé 668" d="M579.355,455.562a3.766,3.766,0,0,1-4.019-.657l-3.329-3.092a5.67,5.67,0,0,1-1.759-3.7l-.5-5.86a3.149,3.149,0,0,1,3.606-3.4l6.006,6.3a8.674,8.674,0,0,1,2.2,5.672l.06,1.517a3.285,3.285,0,0,1-2.04,3.12Z" fill="#eb987a"></path>
        <line id="Ligne_49" data-name="Ligne 49" x2="36.126" transform="translate(352.997 488.318)" fill="none" stroke="#2f4526" stroke-linecap="round" stroke-linejoin="round" stroke-width="1.559"></line>
        <line id="Ligne_50" data-name="Ligne 50" x2="36.126" transform="translate(411.856 488.318)" fill="none" stroke="#2f4526" stroke-linecap="round" stroke-linejoin="round" stroke-width="1.559"></line>
      </g>
    </g>
  </g>
</svg>
